SplineFontDB: 3.2
FontName: Roga
FullName: Roga
FamilyName: Roga
Weight: Book
Copyright: Copyright(c) 2023, Viktor Kovacs
Version: 001.009
ItalicAngle: 0
UnderlinePosition: -125
UnderlineWidth: 50
Ascent: 800
Descent: 200
InvalidEm: 0
sfntRevision: 0x00010000
LayerCount: 2
Layer: 0 1 "Back" 1
Layer: 1 1 "Fore" 0
XUID: [1021 113 719581311 8638125]
FSType: 0
OS2Version: 4
OS2_WeightWidthSlopeOnly: 0
OS2_UseTypoMetrics: 1
CreationTime: 1545818743
ModificationTime: 1686827498
PfmFamily: 33
TTFWeight: 400
TTFWidth: 5
LineGap: 90
VLineGap: 0
Panose: 2 0 5 3 0 0 0 0 0 0
OS2TypoAscent: 800
OS2TypoAOffset: 0
OS2TypoDescent: -200
OS2TypoDOffset: 0
OS2TypoLinegap: 90
OS2WinAscent: 801
OS2WinAOffset: 0
OS2WinDescent: 80
OS2WinDOffset: 0
HheadAscent: 801
HheadAOffset: 0
HheadDescent: -80
HheadDOffset: 0
OS2SubXSize: 650
OS2SubYSize: 700
OS2SubXOff: 0
OS2SubYOff: 140
OS2SupXSize: 650
OS2SupYSize: 700
OS2SupXOff: 0
OS2SupYOff: 480
OS2StrikeYSize: 50
OS2StrikeYPos: 259
OS2Vendor: 'roga'
OS2CodePages: 00000001.00000000
OS2UnicodeRanges: 80000001.02000000.00000000.00000000
MarkAttachClasses: 1
DEI: 91125
ShortTable: cvt  2
  68
  1297
EndShort
ShortTable: maxp 16
  1
  0
  140
  99
  5
  0
  0
  2
  0
  1
  1
  0
  64
  46
  0
  0
EndShort
LangName: 1038 "" "Roga" "" "" "Roga"

StartChar: .notdef
Encoding: 125 -1 0
Width: 416
Flags: W
LayerCount: 2
Fore
SplineSet
75 0 m 1,0,-1
 75 667 l 1,1,-1
 341 667 l 1,2,-1
 341 0 l 1,3,-1
 75 0 l 1,0,-1
108 33 m 1,4,-1
 308 33 l 1,5,-1
 308 633 l 1,6,-1
 108 633 l 1,7,-1
 108 33 l 1,4,-1
EndSplineSet
Validated: 1
EndChar

StartChar: exclam
Encoding: 1 33 2
Width: 243
GlyphClass: 2
Flags: W
LayerCount: 2
Fore
SplineSet
75 193 m 1,0,-1
 75 688 l 1,1,-1
 168 688 l 1,2,-1
 168 192 l 1,3,-1
 75 193 l 1,0,-1
168 90 m 1,4,-1
 168 0 l 1,5,-1
 75 0 l 1,6,-1
 75 89 l 1,7,-1
 168 90 l 1,4,-1
EndSplineSet
Validated: 1
EndChar

StartChar: quotedbl
Encoding: 2 34 3
Width: 420
GlyphClass: 2
Flags: W
LayerCount: 2
Fore
SplineSet
334 472 m 1,0,-1
 265 472 l 1,1,-1
 255 688 l 1,2,-1
 345 688 l 1,3,-1
 334 472 l 1,0,-1
154 472 m 1,4,-1
 85 472 l 1,5,-1
 75 688 l 1,6,-1
 164 688 l 1,7,-1
 154 472 l 1,4,-1
EndSplineSet
Validated: 1
EndChar

StartChar: hyphen
Encoding: 3 45 4
Width: 394
GlyphClass: 2
Flags: W
LayerCount: 2
Fore
SplineSet
75 227 m 1,0,-1
 75 305 l 1,1,-1
 319 305 l 1,2,-1
 319 227 l 1,3,-1
 75 227 l 1,0,-1
EndSplineSet
Validated: 1
EndChar

StartChar: period
Encoding: 4 46 5
Width: 243
GlyphClass: 2
Flags: W
LayerCount: 2
Fore
SplineSet
168 90 m 1,0,-1
 168 0 l 1,1,-1
 75 0 l 1,2,-1
 75 89 l 1,3,-1
 168 90 l 1,0,-1
EndSplineSet
Validated: 1
EndChar

StartChar: colon
Encoding: 5 58 6
Width: 242
GlyphClass: 2
Flags: W
LayerCount: 2
Fore
SplineSet
167 486 m 1,0,-1
 167 396 l 1,1,-1
 75 396 l 1,2,-1
 75 485 l 1,3,-1
 167 486 l 1,0,-1
167 90 m 1,4,-1
 167 0 l 1,5,-1
 75 0 l 1,6,-1
 75 89 l 1,7,-1
 167 90 l 1,4,-1
EndSplineSet
Validated: 1
EndChar

StartChar: uni201F
Encoding: 10 8223 7
Width: 409
GlyphClass: 2
Flags: W
LayerCount: 2
Fore
SplineSet
241 710 m 1,0,-1
 241 800 l 1,1,-1
 334 801 l 1,2,-1
 334 710 l 1,3,-1
 288 710 l 1,4,-1
 302 669 l 1,5,-1
 333 631 l 1,6,-1
 288 631 l 1,7,-1
 256 669 l 1,8,-1
 241 710 l 1,0,-1
75 710 m 1,9,-1
 75 799 l 1,10,-1
 168 800 l 1,11,-1
 168 710 l 1,12,13
 167 710 167 710 121 710 c 1,14,-1
 136 669 l 1,15,-1
 167 630 l 1,16,-1
 121 630 l 1,17,-1
 90 669 l 1,18,-1
 75 710 l 1,9,-1
EndSplineSet
Validated: 1
EndChar

StartChar: ellipsis
Encoding: 11 8230 8
Width: 521
GlyphClass: 2
Flags: W
LayerCount: 2
Fore
SplineSet
446 90 m 1,0,-1
 446 0 l 1,1,-1
 353 0 l 1,2,-1
 353 89 l 1,3,-1
 446 90 l 1,0,-1
309 90 m 1,4,-1
 309 0 l 1,5,-1
 216 0 l 1,6,-1
 216 89 l 1,7,-1
 309 90 l 1,4,-1
168 90 m 1,8,-1
 168 0 l 1,9,-1
 75 0 l 1,10,-1
 75 89 l 1,11,-1
 168 90 l 1,8,-1
EndSplineSet
Validated: 1
EndChar

StartChar: exclamdbl
Encoding: 12 8252 9
Width: 409
GlyphClass: 2
Flags: W
LayerCount: 2
Fore
SplineSet
241 193 m 1,0,-1
 241 688 l 1,1,-1
 334 688 l 1,2,-1
 334 192 l 1,3,-1
 241 193 l 1,0,-1
334 90 m 1,4,-1
 334 0 l 1,5,-1
 241 0 l 1,6,-1
 241 89 l 1,7,-1
 334 90 l 1,4,-1
75 193 m 1,8,-1
 75 688 l 1,9,-1
 168 688 l 1,10,-1
 168 192 l 1,11,-1
 75 193 l 1,8,-1
168 90 m 1,12,-1
 168 0 l 1,13,-1
 75 0 l 1,14,-1
 75 89 l 1,15,-1
 168 90 l 1,12,-1
EndSplineSet
Validated: 1
EndChar

StartChar: uni204F
Encoding: 13 8271 10
Width: 243
GlyphClass: 2
Flags: W
LayerCount: 2
Fore
SplineSet
75 0 m 1,0,-1
 75 89 l 1,1,-1
 168 90 l 1,2,-1
 168 0 l 1,3,4
 167 0 167 0 121 0 c 1,5,-1
 136 -41 l 1,6,-1
 167 -80 l 1,7,-1
 121 -80 l 1,8,-1
 90 -41 l 1,9,-1
 75 0 l 1,0,-1
168 486 m 1,10,-1
 168 396 l 1,11,-1
 75 396 l 1,12,-1
 75 485 l 1,13,-1
 168 486 l 1,10,-1
EndSplineSet
Validated: 1
EndChar

StartChar: uni2E2E
Encoding: 14 11822 11
Width: 628
GlyphClass: 2
Flags: W
LayerCount: 2
Fore
SplineSet
377 90 m 1,0,-1
 377 0 l 1,1,-1
 282 0 l 1,2,-1
 282 89 l 1,3,-1
 377 90 l 1,0,-1
75 504 m 0,4,5
 75 595 75 595 137 646 c 0,6,7
 200 698 200 698 309 698 c 0,8,9
 413 698 413 698 476 646 c 0,10,11
 540 594 540 594 553 498 c 1,12,-1
 463 492 l 1,13,14
 457 552 457 552 416 586 c 0,15,16
 376 620 376 620 308 620 c 0,17,18
 240 620 240 620 201.5 588 c 128,-1,19
 163 556 163 556 163 500 c 0,20,21
 163 471 163 471 172 450 c 128,-1,22
 181 429 181 429 196 411 c 0,23,24
 212 393 212 393 230 380 c 0,25,26
 250 365 250 365 268 352.5 c 128,-1,27
 286 340 286 340 307 323 c 0,28,29
 326 308 326 308 341 288 c 0,30,31
 357 268 357 268 366 243 c 0,32,33
 376 217 376 217 376 184 c 1,34,-1
 282 184 l 1,35,36
 281 226 281 226 269 245 c 0,37,38
 249 278 249 278 221 299 c 2,39,-1
 182 328 l 2,40,41
 137 361 137 361 116 385 c 0,42,43
 96 409 96 409 85 438 c 0,44,45
 75 466 75 466 75 504 c 0,4,5
EndSplineSet
Validated: 1
EndChar

StartChar: uni2E41
Encoding: 15 11841 12
Width: 243
GlyphClass: 2
Flags: W
LayerCount: 2
Fore
SplineSet
75 0 m 1,0,-1
 75 89 l 1,1,-1
 168 90 l 1,2,-1
 168 0 l 1,3,4
 167 0 167 0 121 0 c 1,5,-1
 136 -41 l 1,6,-1
 167 -80 l 1,7,-1
 121 -80 l 1,8,-1
 90 -41 l 1,9,-1
 75 0 l 1,0,-1
EndSplineSet
Validated: 1
EndChar

StartChar: uni2E42
Encoding: 16 11842 13
Width: 409
GlyphClass: 2
Flags: W
LayerCount: 2
Fore
SplineSet
241 0 m 1,0,-1
 241 90 l 1,1,-1
 334 91 l 1,2,-1
 334 0 l 1,3,-1
 288 0 l 1,4,-1
 302 -41 l 1,5,-1
 333 -79 l 1,6,-1
 288 -79 l 1,7,-1
 256 -41 l 1,8,-1
 241 0 l 1,0,-1
75 0 m 1,9,-1
 75 89 l 1,10,-1
 168 90 l 1,11,-1
 168 0 l 1,12,13
 167 0 167 0 121 0 c 1,14,-1
 136 -41 l 1,15,-1
 167 -80 l 1,16,-1
 121 -80 l 1,17,-1
 90 -41 l 1,18,-1
 75 0 l 1,9,-1
EndSplineSet
Validated: 1
EndChar

StartChar: u10C80
Encoding: 17 68736 14
Width: 510
GlyphClass: 2
Flags: W
LayerCount: 2
Fore
SplineSet
435 714 m 1,0,-1
 433 0 l 1,1,-1
 343 0 l 1,2,-1
 342 373 l 1,3,-1
 75 372 l 1,4,-1
 75 443 l 1,5,-1
 345 714 l 1,6,-1
 435 714 l 1,0,-1
344 447 m 1,7,-1
 344 620 l 1,8,-1
 162 446 l 1,9,-1
 344 447 l 1,7,-1
EndSplineSet
Validated: 1
EndChar

StartChar: u10C81
Encoding: 18 68737 15
Width: 526
GlyphClass: 2
Flags: W
LayerCount: 2
Fore
SplineSet
451 714 m 1,0,-1
 449 0 l 1,1,-1
 359 0 l 1,2,-1
 358 333 l 1,3,-1
 75 469 l 1,4,-1
 75 539 l 1,5,-1
 361 714 l 1,6,-1
 451 714 l 1,0,-1
360 407 m 1,7,-1
 360 640 l 1,8,-1
 153 513 l 1,9,-1
 360 407 l 1,7,-1
EndSplineSet
Validated: 1
EndChar

StartChar: u10C82
Encoding: 19 68738 16
Width: 588
GlyphClass: 2
Flags: W
LayerCount: 2
Fore
SplineSet
583 0 m 1,0,-1
 481 0 l 1,1,-1
 292 310 l 1,2,-1
 100 0 l 1,3,-1
 5 0 l 1,4,-1
 242 372 l 1,5,-1
 20 714 l 1,6,-1
 120 714 l 1,7,-1
 295 434 l 1,8,-1
 471 714 l 1,9,-1
 566 714 l 1,10,-1
 345 374 l 1,11,-1
 583 0 l 1,0,-1
EndSplineSet
Validated: 1
EndChar

StartChar: u10C83
Encoding: 20 68739 17
Width: 1102
GlyphClass: 2
Flags: W
LayerCount: 2
Fore
SplineSet
503 1 m 1,0,1
 468 23 468 23 437.5 45.5 c 128,-1,2
 407 68 407 68 380 91 c 1,3,-1
 217 1 l 1,4,-1
 95 102 l 1,5,-1
 154 162 l 1,6,-1
 236 93 l 1,7,-1
 328 146 l 1,8,9
 291 190 291 190 270.5 238.5 c 128,-1,10
 250 287 250 287 250 357.5 c 128,-1,11
 250 428 250 428 270.5 477.5 c 128,-1,12
 291 527 291 527 328 571 c 1,13,-1
 227 623 l 1,14,-1
 134 509 l 1,15,-1
 75 561 l 1,16,17
 76 561 76 561 208 714 c 1,18,-1
 380 624 l 1,19,20
 406 647 406 647 437.5 670 c 128,-1,21
 469 693 469 693 502 715 c 1,22,-1
 597 715 l 1,23,24
 632 693 632 693 661.5 671 c 128,-1,25
 691 649 691 649 718 626 c 1,26,-1
 888 714 l 1,27,-1
 1027 585 l 1,28,-1
 971 528 l 1,29,-1
 874 628 l 1,30,-1
 770 572 l 1,31,32
 808 527 808 527 828.5 477.5 c 128,-1,33
 849 428 849 428 849 357.5 c 128,-1,34
 849 287 849 287 829 237.5 c 128,-1,35
 809 188 809 188 770 143 c 1,36,-1
 865 93 l 1,37,-1
 951 187 l 1,38,-1
 1017 136 l 1,39,-1
 883 1 l 1,40,-1
 718 89 l 1,41,42
 692 67 692 67 661.5 44.5 c 128,-1,43
 631 22 631 22 597 1 c 1,44,-1
 503 1 l 1,0,1
552 59 m 1,45,46
 633 119 633 119 692 197.5 c 0,47,48
 759 287 759 287 759 357.5 c 128,-1,49
 759 428 759 428 692 518.5 c 0,50,51
 629 605 629 605 552 657 c 1,52,-1
 547 657 l 1,53,54
 469 602 469 602 407.5 518 c 0,55,56
 340 428 340 428 340 357.5 c 128,-1,57
 340 287 340 287 407.5 197 c 0,58,59
 470 113 470 113 547 59 c 1,60,-1
 552 59 l 1,45,46
EndSplineSet
Validated: 1
EndChar

StartChar: u10C84
Encoding: 21 68740 18
Width: 717
GlyphClass: 2
Flags: W
LayerCount: 2
Fore
SplineSet
312 626 m 1,0,-1
 186 511 l 1,1,-1
 75 511 l 1,2,-1
 312 714 l 1,3,-1
 405 714 l 1,4,-1
 642 511 l 1,5,-1
 532 511 l 1,6,-1
 405 627 l 1,7,-1
 402 0 l 1,8,-1
 309 0 l 1,9,-1
 312 626 l 1,0,-1
EndSplineSet
Validated: 1
EndChar

StartChar: u10C85
Encoding: 22 68741 19
Width: 714
GlyphClass: 2
Flags: W
LayerCount: 2
Fore
SplineSet
402 0 m 1,0,-1
 312 0 l 1,1,-1
 75 205 l 1,2,-1
 186 205 l 1,3,-1
 312 90 l 1,4,-1
 312 626 l 1,5,-1
 186 511 l 1,6,-1
 75 511 l 1,7,-1
 312 714 l 1,8,-1
 402 714 l 1,9,-1
 639 511 l 1,10,-1
 529 511 l 1,11,-1
 402 627 l 1,12,-1
 402 89 l 1,13,-1
 529 205 l 1,14,-1
 639 205 l 1,15,-1
 402 0 l 1,0,-1
EndSplineSet
Validated: 1
EndChar

StartChar: u10C86
Encoding: 23 68742 20
Width: 696
GlyphClass: 2
Flags: W
LayerCount: 2
Fore
SplineSet
531 351 m 1,0,1
 531 351 531 351 531 575 c 1,2,-1
 165 365 l 1,3,-1
 165 139 l 1,4,5
 325 232 325 232 531 351 c 1,0,1
531 273 m 1,6,7
 348 164 348 164 165 60.5 c 1,8,9
 165 30 165 30 165 0 c 1,10,-1
 75 0 l 1,11,-1
 75 714 l 1,12,-1
 165 714 l 1,13,-1
 165 444 l 1,14,-1
 531 654 l 1,15,-1
 531 714 l 1,16,-1
 621 714 l 1,17,-1
 621 0 l 1,18,-1
 531 0 l 1,19,-1
 531 273 l 1,6,7
EndSplineSet
Validated: 524289
EndChar

StartChar: u10C87
Encoding: 24 68743 21
Width: 517
GlyphClass: 2
Flags: W
LayerCount: 2
Fore
SplineSet
203 714 m 17,0,1
 203 714 203 714 293.708984375 714 c 1,2,3
 294 687 294 687 294 413.048828125 c 1,4,5
 294 413.048828125 294 413.048828125 442 502 c 9,6,-1
 442 423 l 17,7,-1
 294 342.42578125 l 1,8,9
 292 213 292 213 292 0 c 1,10,11
 292 0 292 0 203 0 c 1,12,13
 203 142 203 142 203 285 c 1,14,15
 203 285 203 285 75 213 c 1,16,-1
 75 292 l 1,17,-1
 204 366.065429688 l 9,18,19
 204 366.065429688 204 366.065429688 203 714 c 17,0,1
EndSplineSet
Validated: 1
EndChar

StartChar: u10C88
Encoding: 25 68744 22
Width: 588
GlyphClass: 2
Flags: W
LayerCount: 2
Fore
SplineSet
398 442.787109375 m 1,0,1
 398 442.787109375 398 442.787109375 564 497 c 9,2,-1
 564 418 l 1,3,-1
 353 351.58984375 l 1,4,5
 468 176 468 176 583 0 c 1,6,7
 583 0 583 0 481 0 c 1,8,-1
 284 310 l 1,9,-1
 100 0 l 1,10,-1
 5 0 l 1,11,12
 98 146 98 146 191 291.180664062 c 1,13,14
 191 291.180664062 191 291.180664062 48 238 c 1,15,-1
 48 317 l 1,16,-1
 236 381.4921875 l 1,17,18
 238 385 238 385 20 714 c 1,19,20
 20 714 20 714 120 714 c 1,21,-1
 295 434 l 1,22,-1
 471 714 l 1,23,-1
 566 714 l 1,24,25
 482 578 482 578 398 442.787109375 c 1,0,1
EndSplineSet
Validated: 524321
EndChar

StartChar: u10C89
Encoding: 26 68745 23
Width: 536
GlyphClass: 2
Flags: W
LayerCount: 2
Fore
SplineSet
88 94 m 1,0,1
 136 94 136 94 151 99 c 0,2,3
 227 123 227 123 249 142 c 1,4,-1
 154 221 l 1,5,-1
 208 276 l 1,6,-1
 302 198 l 1,7,8
 338 250 338 250 347 270 c 0,9,10
 364 306 364 306 363 364 c 0,11,12
 363 455 363 455 307 528 c 1,13,-1
 211 446 l 1,14,-1
 154 501 l 1,15,-1
 249 580 l 1,16,17
 209 610 209 610 151 617 c 0,18,19
 115 621 115 621 93 621 c 2,20,-1
 80 621 l 1,21,-1
 75 714 l 1,22,23
 165 710 165 710 182 706 c 0,24,25
 250 688 250 688 309 641 c 1,26,-1
 395 717 l 1,27,-1
 457 663 l 1,28,-1
 376 589 l 1,29,30
 453 489 453 489 453 360 c 2,31,-1
 453 356 l 2,32,33
 453 299 453 299 443.5 263.5 c 128,-1,34
 434 228 434 228 419.5 203.5 c 128,-1,35
 405 179 405 179 375 140 c 1,36,-1
 461 65 l 1,37,-1
 402 4 l 1,38,-1
 320 77 l 1,39,40
 265 33 265 33 182 9 c 0,41,42
 157 2 157 2 93 0 c 1,43,-1
 88 94 l 1,0,1
EndSplineSet
Validated: 33
EndChar

StartChar: u10C8A
Encoding: 27 68746 24
Width: 550
GlyphClass: 2
Flags: W
LayerCount: 2
Fore
SplineSet
80 52 m 1,0,1
 118 71 118 71 150 88 c 128,-1,2
 182 105 182 105 209 121 c 1,3,4
 142 173 142 173 113 225.5 c 128,-1,5
 84 278 84 278 84 353 c 256,6,7
 84 430 84 430 112.5 483 c 128,-1,8
 141 536 141 536 208 588 c 1,9,10
 180 606 180 606 147 623.5 c 128,-1,11
 114 641 114 641 75 660 c 1,12,-1
 136 712 l 1,13,14
 218 671 218 671 275 635 c 1,15,16
 332 671 332 671 414 712 c 1,17,-1
 475 660 l 1,18,19
 436 641 436 641 403 623 c 128,-1,20
 370 605 370 605 343 589 c 1,21,22
 409 537 409 537 437.5 484 c 128,-1,23
 466 431 466 431 466 353 c 0,24,25
 466 278 466 278 437.5 225 c 128,-1,26
 409 172 409 172 341 121 c 1,27,28
 368 105 368 105 400.5 88 c 128,-1,29
 433 71 433 71 470 52 c 1,30,-1
 418 -2 l 1,31,32
 377 19 377 19 341 38 c 128,-1,33
 305 57 305 57 275 75 c 1,34,35
 245 56 245 56 209 37 c 128,-1,36
 173 18 173 18 132 -2 c 1,37,-1
 80 52 l 1,0,1
275 166 m 1,38,39
 330.653320312 208.219726562 330.653320312 208.219726562 352.5 249 c 0,40,41
 375 291 375 291 375 353 c 0,42,43
 375 418 375 418 353 459 c 0,44,45
 334 497 334 497 275 542 c 1,46,47
 218 499 218 499 197 459 c 0,48,49
 175 418 175 418 175 353 c 256,50,51
 175 293 175 293 197.5 248.5 c 0,52,53
 217 210 217 210 275 166 c 1,38,39
EndSplineSet
Validated: 1
EndChar

StartChar: u10C8B
Encoding: 28 68747 25
Width: 537
GlyphClass: 2
Flags: W
LayerCount: 2
Fore
SplineSet
80 50 m 17,0,1
 118 69 118 69 150 86 c 128,-1,2
 182 103 182 103 209 119 c 9,3,4
 209 119 209 119 275 164 c 17,5,6
 327 205 327 205 349.5 247 c 128,-1,7
 372 289 372 289 372 339 c 0,8,9
 372 390 372 390 350 431 c 128,-1,10
 328 472 328 472 275 514 c 1,11,12
 275 514 275 514 208 560 c 1,13,14
 180 578 180 578 147 595.5 c 128,-1,15
 114 613 114 613 75 632 c 9,16,17
 75 632 75 632 290 774 c 17,18,19
 351 722 351 722 351 722 c 1,20,21
 312 703 312 703 279 685 c 128,-1,22
 246 667 246 667 219 651 c 1,23,24
 334 595 334 595 403.5 511 c 0,25,26
 462 439 462 439 462 339 c 0,27,28
 462 232 462 232 403.5 163 c 0,29,30
 349 99 349 99 236 45 c 1,31,32
 263 29 263 29 296 11 c 128,-1,33
 329 -7 329 -7 368 -26 c 1,34,35
 368 -26 368 -26 307 -78 c 9,36,37
 307 -78 307 -78 80 50 c 17,0,1
EndSplineSet
Validated: 1
EndChar

StartChar: u10C8C
Encoding: 29 68748 26
Width: 711
GlyphClass: 2
Flags: W
LayerCount: 2
Fore
SplineSet
303 0 m 1,0,1
 191 76 191 76 133 160.5 c 128,-1,2
 75 245 75 245 75 357 c 256,3,4
 75 469 75 469 133 553.5 c 128,-1,5
 191 638 191 638 303 714 c 1,6,-1
 407 714 l 1,7,8
 519 638 519 638 577.5 553.5 c 128,-1,9
 636 469 636 469 636 357 c 256,10,11
 636 245 636 245 577.5 160.5 c 128,-1,12
 519 76 519 76 407 0 c 1,13,-1
 303 0 l 1,0,1
355 418 m 1,14,-1
 473 542 l 1,15,16
 451 568 451 568 422 594.5 c 128,-1,17
 393 621 393 621 357 650 c 1,18,-1
 354 650 l 1,19,20
 318 621 318 621 289.5 594.5 c 128,-1,21
 261 568 261 568 238 543 c 1,22,-1
 355 418 l 1,14,-1
190 242 m 1,23,-1
 297 355 l 1,24,-1
 190 471 l 1,25,26
 166 419 166 419 166 357 c 0,27,28
 166 294 166 294 190 242 c 1,23,-1
521 243 m 1,29,30
 545 295 545 295 545 357 c 0,31,32
 545 418 545 418 521 470 c 1,33,-1
 414 355 l 1,34,-1
 521 243 l 1,29,30
354 64 m 1,35,-1
 357 64 l 1,36,37
 428 119 428 119 471 167 c 1,38,-1
 355 291 l 1,39,-1
 240 167 l 1,40,41
 283 119 283 119 354 64 c 1,35,-1
EndSplineSet
Validated: 1
EndChar

StartChar: u10C8D
Encoding: 30 68749 27
Width: 690
GlyphClass: 2
Flags: W
LayerCount: 2
Fore
SplineSet
418 423 m 2,0,1
 422 433 422 433 390.969726562 495 c 1,2,3
 373 538 373 538 370.5 540 c 128,-1,4
 368 542 368 542 345 614 c 1,5,6
 327 562 327 562 322 540.5 c 0,7,8
 319 528 319 528 298 478 c 2,9,10
 270.939453125 413 270.939453125 413 270.939453125 413 c 129,-1,11
 270.939453125 413 270.939453125 413 99 0 c 1,12,-1
 5 0 l 1,13,-1
 206.211914062 487 l 1,14,15
 206.211914062 487 206.211914062 487 300 714 c 1,16,-1
 390 714 l 1,17,-1
 685 0 l 1,18,-1
 590 0 l 1,19,-1
 459.67578125 312 l 1,20,21
 394 156 394 156 329 0 c 1,22,23
 329 0 329 0 235 0 c 1,24,25
 422.934570312 409.856445312 422.934570312 409.856445312 418 423 c 2,0,1
EndSplineSet
Validated: 524321
EndChar

StartChar: u10C8E
Encoding: 31 68750 28
Width: 558
GlyphClass: 2
Flags: W
LayerCount: 2
Fore
SplineSet
318 452 m 1,0,-1
 319 320 l 1,1,-1
 483 423 l 1,2,-1
 483 346 l 1,3,-1
 318 243 l 1,4,-1
 316 0 l 1,5,-1
 226 0 l 1,6,-1
 226 197 l 1,7,-1
 75 102 l 1,8,-1
 75 179 l 1,9,-1
 226 277 l 1,10,-1
 226 407 l 1,11,-1
 75 312 l 1,12,-1
 75 389 l 1,13,-1
 226 487 l 1,14,-1
 226 714 l 1,15,-1
 316 714 l 1,16,-1
 317 530 l 1,17,-1
 483 633 l 1,18,-1
 483 556 l 1,19,-1
 318 452 l 1,0,-1
EndSplineSet
Validated: 1
EndChar

StartChar: u10C8F
Encoding: 32 68751 29
Width: 663
GlyphClass: 2
Flags: W
LayerCount: 2
Fore
SplineSet
191 357 m 1,0,-1
 332 227 l 1,1,-1
 472 357 l 1,2,-1
 332 490 l 1,3,-1
 191 357 l 1,0,-1
91 357 m 1,4,-1
 269 539 l 1,5,-1
 84 714 l 1,6,-1
 194 714 l 1,7,-1
 332 579 l 1,8,-1
 469 714 l 1,9,-1
 578 714 l 1,10,-1
 393 539 l 1,11,-1
 572 358 l 1,12,-1
 393 183 l 1,13,-1
 588 0 l 1,14,-1
 478 0 l 1,15,-1
 332 143 l 1,16,-1
 184 0 l 1,17,-1
 75 0 l 1,18,-1
 269 183 l 1,19,-1
 91 357 l 1,4,-1
EndSplineSet
Validated: 1
EndChar

StartChar: u10C90
Encoding: 33 68752 30
Width: 558
GlyphClass: 2
Flags: W
LayerCount: 2
Fore
SplineSet
319 616 m 1,0,-1
 483 719 l 1,1,-1
 483 643 l 1,2,-1
 318 539 l 1,3,-1
 316 0 l 1,4,-1
 226 0 l 1,5,-1
 226 493 l 1,6,-1
 75 399 l 1,7,-1
 75 475 l 1,8,-1
 226 573 l 1,9,-1
 226 714 l 1,10,-1
 316 714 l 1,11,-1
 319 616 l 1,0,-1
EndSplineSet
Validated: 1
EndChar

StartChar: u10C91
Encoding: 34 68753 31
Width: 558
GlyphClass: 2
Flags: W
LayerCount: 2
Fore
SplineSet
482 714 m 1,0,-1
 483 633 l 1,1,-1
 318 529 l 1,2,-1
 316 0 l 1,3,-1
 226 0 l 1,4,-1
 226 483 l 1,5,-1
 75 389 l 1,6,-1
 75 465 l 1,7,-1
 482 714 l 1,0,-1
EndSplineSet
Validated: 1
EndChar

StartChar: u10C92
Encoding: 35 68754 32
Width: 466
GlyphClass: 2
Flags: W
LayerCount: 2
Fore
SplineSet
75 538 m 1,0,-1
 299 713 l 1,1,-1
 391 714 l 1,2,-1
 389 0 l 1,3,-1
 299 0 l 1,4,-1
 299 629 l 1,5,-1
 75 456 l 1,6,-1
 75 538 l 1,0,-1
EndSplineSet
Validated: 1
EndChar

StartChar: u10C93
Encoding: 36 68755 33
Width: 659
GlyphClass: 2
Flags: W
LayerCount: 2
Fore
SplineSet
328 72 m 1,0,-1
 494 362 l 1,1,-1
 328 638 l 1,2,-1
 165 359 l 1,3,-1
 328 72 l 1,0,-1
375 0 m 1,4,-1
 282 0 l 1,5,-1
 75 358 l 1,6,-1
 279 714 l 1,7,-1
 372 714 l 1,8,-1
 584 362 l 1,9,-1
 375 0 l 1,4,-1
EndSplineSet
Validated: 1
EndChar

StartChar: u10C94
Encoding: 37 68756 34
Width: 722
GlyphClass: 2
Flags: W
LayerCount: 2
Fore
SplineSet
647 323 m 1,0,-1
 418 0 l 1,1,-1
 330 1 l 1,2,-1
 324 615 l 1,3,-1
 169 413 l 1,4,-1
 75 413 l 1,5,-1
 326 715 l 1,6,-1
 415 714 l 1,7,-1
 415 99 l 1,8,-1
 554 322 l 1,9,-1
 647 323 l 1,0,-1
EndSplineSet
Validated: 1
EndChar

StartChar: u10C95
Encoding: 38 68757 35
Width: 708
GlyphClass: 2
Flags: W
LayerCount: 2
Fore
SplineSet
590 84 m 9,0,1
 590 84 590 84 703 191 c 25,2,-1
 701 92 l 25,3,4
 673 47 673 47 646 2 c 1,5,6
 646 2 646 2 541 0 c 1,7,-1
 352 310 l 1,8,-1
 160 0 l 1,9,-1
 62 2 l 1,10,11
 35 47 35 47 7 92 c 25,12,13
 7 92 7 92 5 191 c 25,14,-1
 118 86 l 17,15,16
 122 89 122 89 302 372 c 1,17,18
 128 629 128 629 128 629 c 137,-1,19
 128 629 128 629 25 522 c 25,20,-1
 27 621 l 25,21,22
 55 666 55 666 82 711 c 1,23,24
 82 711 82 711 180 714 c 1,25,-1
 355 434 l 1,26,-1
 531 714 l 1,27,28
 626 714 626 714 629 711 c 1,29,30
 657 666 657 666 684 621 c 25,31,32
 684 621 684 621 686 522 c 25,33,-1
 573 627 l 17,34,35
 570 629 570 629 405 374 c 1,36,37
 591 81 591 81 590 84 c 9,0,1
EndSplineSet
Validated: 33
EndChar

StartChar: u10C96
Encoding: 39 68758 36
Width: 690
GlyphClass: 2
Flags: W
LayerCount: 2
Fore
SplineSet
543 128 m 130,-1,1
 543 128 543 128 489 0 c 1,2,-1
 395 0 l 1,3,-1
 490 238 l 1,4,5
 450 335 450 335 450 335 c 130,-1,6
 450 335 450 335 309 0 c 1,7,-1
 215 0 l 1,8,-1
 404 469 l 1,9,-1
 402 456 l 2,10,11
 404 468 404 468 374 540 c 0,12,13
 350 598 350 598 345 614 c 1,14,15
 327 562 327 562 322 540.5 c 0,16,17
 319.250976562 529.043945312 319.250976562 529.043945312 298 478 c 2,18,19
 298 478 298 478 99 0 c 1,20,-1
 5 0 l 1,21,-1
 300 714 l 1,22,-1
 390 714 l 1,23,-1
 685 0 l 1,24,-1
 590 0 l 1,25,0
 543 128 543 128 543 128 c 130,-1,1
EndSplineSet
Validated: 524325
EndChar

StartChar: u10C97
Encoding: 40 68759 37
Width: 708
GlyphClass: 2
Flags: W
LayerCount: 2
Fore
SplineSet
307 0 m 1,0,1
 202 76 202 76 138.5 160.5 c 128,-1,2
 75 245 75 245 75 357 c 256,3,4
 75 469 75 469 138.5 553.5 c 128,-1,5
 202 638 202 638 307 714 c 1,6,-1
 399 714 l 1,7,8
 504 638 504 638 568.5 553.5 c 128,-1,9
 633 469 633 469 633 357 c 256,10,11
 633 245 633 245 569 160.5 c 128,-1,12
 505 76 505 76 399 0 c 1,13,-1
 307 0 l 1,0,1
206 243 m 1,14,-1
 460 541 l 1,15,16
 422 591 422 591 355 650 c 1,17,-1
 353 650 l 1,18,19
 256 565 256 565 247.5 554.5 c 0,20,21
 210 510 210 510 187.5 462.5 c 0,22,23
 156 397 156 397 165 357 c 0,24,25
 175 310 175 310 206 243 c 1,14,-1
353 64 m 1,26,-1
 355 64 l 1,27,28
 468 164 468 164 497 205 c 4,29,30
 543 270 543 270 543 357 c 4,31,32
 543 363 543 363 502 467 c 1,33,-1
 252 167 l 1,34,35
 271 142 271 142 296.5 116.5 c 128,-1,36
 322 91 322 91 353 64 c 1,26,-1
EndSplineSet
Validated: 33
EndChar

StartChar: u10C98
Encoding: 41 68760 38
Width: 545
GlyphClass: 2
Flags: W
LayerCount: 2
Fore
SplineSet
375 0 m 1,0,-1
 76 125 l 1,1,-1
 76 205 l 1,2,-1
 325 333 l 1,3,-1
 76 458 l 1,4,-1
 75 528 l 1,5,-1
 377 688 l 1,6,-1
 470 688 l 1,7,-1
 468 0 l 1,8,-1
 375 0 l 1,0,-1
375 70 m 1,9,-1
 374 283 l 1,10,-1
 154 167 l 1,11,-1
 375 70 l 1,9,-1
376 381 m 1,12,-1
 376 614 l 1,13,-1
 148 497 l 1,14,-1
 376 381 l 1,12,-1
EndSplineSet
Validated: 1
EndChar

StartChar: u10C99
Encoding: 42 68761 39
Width: 489
GlyphClass: 2
Flags: W
LayerCount: 2
Fore
SplineSet
75 2 m 5,0,1
 75 2 75 2 75 77 c 1,2,-1
 87 77 l 2,3,4
 319 77 319 77 319 360 c 0,5,6
 319 503 319 503 262.5 569.5 c 128,-1,7
 206 636 206 636 103 636 c 2,8,9
 103 636 103 636 75 636 c 1,10,-1
 75 717 l 1,11,12
 166 714 166 714 253.5 674 c 128,-1,13
 341 634 341 634 377.5 556.5 c 128,-1,14
 414 479 414 479 414 364 c 0,15,16
 414 182 414 182 318 90.5 c 128,-1,17
 222 -1 222 -1 75 2 c 5,0,1
EndSplineSet
Validated: 33
EndChar

StartChar: u10C9A
Encoding: 43 68762 40
Width: 579
GlyphClass: 2
Flags: W
LayerCount: 2
Fore
SplineSet
504 364 m 0,0,1
 504 183 504 183 418 91.5 c 128,-1,2
 332 0 332 0 178 0 c 2,3,-1
 75 0 l 5,4,-1
 75 714 l 5,5,-1
 196 714 l 2,6,7
 291 714 291 714 360 674 c 128,-1,8
 429 634 429 634 466.5 556.5 c 128,-1,9
 504 479 504 479 504 364 c 0,0,1
409 361 m 0,10,11
 409 504 409 504 352.5 570.5 c 128,-1,12
 296 637 296 637 193 637 c 2,13,-1
 165 637 l 1,14,-1
 165 77 l 1,15,-1
 177 77 l 2,16,17
 409 77 409 77 409 361 c 0,10,11
EndSplineSet
Validated: 1
EndChar

StartChar: u10C9B
Encoding: 44 68763 41
Width: 564
GlyphClass: 2
Flags: W
LayerCount: 2
Fore
SplineSet
203 75 m 17,0,1
 203 75 203 75 214 76 c 2,2,3
 399 93 399 93 399 364 c 0,4,5
 399 507 399 507 354.5 571 c 128,-1,6
 310 635 310 635 227 635 c 2,7,8
 227 635 227 635 202 635 c 9,9,-1
 75 540 l 25,10,-1
 76 624 l 25,11,12
 155 683 155 683 202 715 c 1,13,14
 282 714 282 714 357.5 674 c 128,-1,15
 433 634 433 634 461 556.5 c 128,-1,16
 489 479 489 479 489 364 c 4,17,18
 489 182 489 182 410 90 c 128,-1,19
 331 -2 331 -2 202 0 c 1,20,21
 155 32 155 32 76 90 c 25,22,23
 76 90 76 90 76 170 c 25,24,-1
 203 75 l 17,0,1
EndSplineSet
Validated: 33
EndChar

StartChar: u10C9C
Encoding: 45 68764 42
Width: 641
GlyphClass: 2
Flags: W
LayerCount: 2
Fore
SplineSet
492 593 m 5,0,1
 566 491 566 491 566 359 c 2,35,36
 567 355 567 355 566 355 c 2,33,34
 566 298 566 298 556.5 262.5 c 128,-1,32
 547 227 547 227 532.5 202.5 c 128,-1,31
 518 178 518 178 491 139 c 1,29,30
 491 139 491 139 329 2 c 9,28,-1
 241 0 l 25,27,-1
 75 198 l 25,26,-1
 225 354 l 25,25,-1
 291 286 l 25,24,-1
 193 190 l 25,22,23
 194 178 194 178 305 84 c 24,20,21
 293.099683544 94.0443037975 293.099683544 94.0443037975 302 98 c 0,18,19
 344 117 344 117 421 194 c 1,16,17
 445 237 445 237 459 269 c 0,14,15
 474 304 474 304 472 363 c 0,12,13
 468 462 468 462 426 533 c 1,10,11
 334 614 334 614 304 622 c 24,8,9
 270 631 270 631 234 627 c 10,6,7
 229.031545741 627.35488959 229.031545741 627.35488959 237 717 c 1,4,5
 311 717 311 717 329 712 c 0,2,3
 390 695 390 695 492 593 c 5,0,1
EndSplineSet
Validated: 524321
EndChar

StartChar: u10C9D
Encoding: 46 68765 43
Width: 469
GlyphClass: 2
Flags: W
LayerCount: 2
Fore
SplineSet
163 713 m 5,0,-1
 389 536 l 5,1,-1
 189 219 l 5,2,-1
 394 60 l 5,3,-1
 331 -2 l 5,4,-1
 75 216 l 5,5,-1
 275 536 l 5,6,-1
 110 661 l 5,7,-1
 163 713 l 5,0,-1
EndSplineSet
Validated: 1
EndChar

StartChar: u10C9E
Encoding: 47 68766 44
Width: 583
GlyphClass: 2
Flags: W
LayerCount: 2
Fore
SplineSet
165 441 m 1,0,-1
 359 713 l 1,1,-1
 469 713 l 1,2,-1
 225 403 l 1,3,-1
 508 0 l 1,4,-1
 393 0 l 1,5,-1
 165 344 l 1,6,-1
 165 0 l 1,7,-1
 75 0 l 5,8,-1
 75 713 l 5,9,-1
 165 713 l 1,10,-1
 165 441 l 1,0,-1
EndSplineSet
Validated: 1
EndChar

StartChar: u10C9F
Encoding: 48 68767 45
Width: 641
GlyphClass: 2
Flags: W
LayerCount: 2
Fore
SplineSet
305 84 m 28,0,1
 293.099609375 94.0439453125 293.099609375 94.0439453125 302 98 c 0,2,3
 370 130 370 130 381 141 c 1,4,5
 381 141 381 141 325 190 c 1,6,-1
 378 242 l 1,7,-1
 423 197 l 1,8,9
 445 237 445 237 459 269 c 0,10,11
 474 304 474 304 472 363 c 0,12,13
 468 462 468 462 427 530 c 1,14,15
 427 530 427 530 370 478 c 1,16,-1
 326 532 l 1,17,-1
 376 587 l 1,18,19
 351 609 351 609 304 622 c 24,20,21
 270 631 270 631 234 627 c 10,22,23
 229 627 229 627 237 717 c 1,24,25
 311 717 311 717 329 712 c 0,26,27
 376 699 376 699 432 643 c 1,28,29
 432 643 432 643 488 700 c 1,30,-1
 549 645 l 1,31,-1
 489 591 l 1,32,33
 566 491 566 491 566 359 c 2,34,35
 566 355 566 355 566 355 c 2,36,37
 566 298 566 298 556.5 262.5 c 128,-1,38
 547 227 547 227 532.5 202.5 c 128,-1,39
 518 178 518 178 488 139 c 1,40,41
 488 139 488 139 552 84 c 1,42,-1
 495 23 l 1,43,-1
 441 76 l 1,44,45
 441 76 441 76 329 2 c 9,46,-1
 241 0 l 29,47,-1
 75 198 l 29,48,-1
 225 354 l 29,49,-1
 291 286 l 29,50,-1
 193 190 l 29,51,52
 194 178 194 178 305 84 c 28,0,1
EndSplineSet
Validated: 524321
EndChar

StartChar: u10CA0
Encoding: 49 68768 46
Width: 606
GlyphClass: 2
Flags: W
LayerCount: 2
Fore
SplineSet
441 714 m 1,0,1
 531 714 531 714 531 714 c 1,2,-1
 531 0 l 1,3,-1
 441 0 l 1,4,-1
 441 262 l 1,5,6
 75 52 75 52 75 52 c 137,-1,7
 75 52 75 52 75 136 c 17,8,9
 75 136 75 136 441 345 c 1,10,11
 441 345 441 345 441 447 c 1,12,-1
 75 237 l 1,13,-1
 75 316 l 1,14,-1
 441 526 l 1,15,-1
 441 628 l 1,16,17
 258 522 258 522 75 416 c 1,18,19
 75 416 75 416 75 501 c 1,20,21
 75 501 75 501 441 714 c 1,0,1
EndSplineSet
Validated: 1
EndChar

StartChar: u10CA1
Encoding: 50 68769 47
Width: 981
GlyphClass: 2
Flags: W
LayerCount: 2
Fore
SplineSet
494 89 m 1,0,1
 534 143 534 143 574 197.5 c 0,2,3
 641 287 641 287 641 357.5 c 0,4,5
 641 435 641 435 574 518.5 c 0,6,7
 500 612 500 612 494 617 c 1,8,-1
 489 617 l 1,9,10
 444 562 444 562 399.5 508 c 0,11,12
 332 428 332 428 332 357.5 c 0,13,14
 332 288.666992188 332 288.666992188 399.5 197 c 0,15,16
 440 142 440 142 489 89 c 1,17,-1
 494 89 l 1,0,1
75 480 m 9,18,-1
 493 714 l 17,19,-1
 906 478 l 1,20,-1
 821 479 l 1,21,-1
 684 551 l 1,22,23
 710 511 710 511 724.5 465.5 c 128,-1,24
 739 420 739 420 740 366 c 1,25,26
 740 366 740 366 902 203 c 1,27,-1
 786 203 l 5,28,-1
 732 271 l 1,29,30
 725 238 725 238 712.5 207.5 c 128,-1,31
 700 177 700 177 683 147 c 1,32,33
 683 147 683 147 786 39 c 1,34,-1
 720 -20 l 1,35,-1
 630 80 l 1,36,37
 607 60 607 60 582.5 39.5 c 128,-1,38
 558 19 558 19 531 0 c 1,39,40
 449 0 449 0 449 0 c 1,41,42
 422 19 422 19 396.5 39 c 0,43,44
 371 58 371 58 350 80 c 1,45,46
 350 80 350 80 261 -20 c 1,47,-1
 194 39 l 1,48,-1
 298 147 l 1,49,50
 262 207 262 207 249 271 c 1,51,52
 249 271 249 271 194 203 c 1,53,-1
 79 203 l 1,54,-1
 241 366 l 1,55,56
 243 420 243 420 257 465 c 128,-1,57
 271 510 271 510 296 549 c 1,58,59
 296 549 296 549 160 479 c 1,60,-1
 75 480 l 9,18,-1
EndSplineSet
Validated: 1
EndChar

StartChar: u10CA2
Encoding: 51 68770 48
Width: 696
GlyphClass: 2
Flags: W
LayerCount: 2
Fore
SplineSet
621 0 m 1,0,-1
 531 0 l 1,1,-1
 531 423 l 1,2,-1
 165 213 l 1,3,-1
 165 0 l 1,4,-1
 75 0 l 1,5,-1
 75 714 l 1,6,-1
 165 714 l 1,7,-1
 165 292 l 1,8,-1
 531 502 l 1,9,-1
 531 714 l 1,10,-1
 621 714 l 1,11,-1
 621 0 l 1,0,-1
EndSplineSet
Validated: 1
EndChar

StartChar: u10CA3
Encoding: 52 68771 49
Width: 516
GlyphClass: 2
Flags: W
LayerCount: 2
Fore
SplineSet
441 423 m 21,0,-1
 75 213 l 5,1,-1
 75 292 l 5,2,-1
 441 502 l 13,3,-1
 441 423 l 21,0,-1
EndSplineSet
Validated: 1
EndChar

StartChar: u10CA4
Encoding: 53 68772 50
Width: 690
GlyphClass: 2
Flags: W
LayerCount: 2
Fore
SplineSet
685 0 m 5,0,-1
 590 0 l 5,1,-1
 402 456 l 6,2,3
 368.594726562 537.024414062 368.594726562 537.024414062 368 540 c 4,4,5
 357 577 357 577 345 614 c 5,6,7
 332 576 332 576 322 540.5 c 4,8,9
 319 529 319 529 298 478 c 6,10,11
 298 478 298 478 99 0 c 5,12,-1
 5 0 l 5,13,-1
 300 714 l 5,14,-1
 390 714 l 5,15,-1
 685 0 l 5,0,-1
EndSplineSet
Validated: 524289
EndChar

StartChar: u10CA5
Encoding: 54 68773 51
Width: 238
GlyphClass: 2
Flags: W
LayerCount: 2
Fore
SplineSet
163 0 m 1,0,-1
 75 0 l 1,1,-1
 75 714 l 5,2,-1
 163 714 l 5,3,-1
 163 0 l 1,0,-1
EndSplineSet
Validated: 1
EndChar

StartChar: u10CA6
Encoding: 55 68774 52
Width: 470
GlyphClass: 2
Flags: W
LayerCount: 2
Fore
SplineSet
305 511 m 1,0,-1
 305 714 l 1,1,-1
 395 714 l 1,2,-1
 395 0 l 1,3,-1
 305 0 l 1,4,-1
 305 408 l 1,5,-1
 75 712 l 1,6,-1
 158 712 l 1,7,-1
 305 511 l 1,0,-1
EndSplineSet
Validated: 1
EndChar

StartChar: u10CA7
Encoding: 56 68775 53
Width: 868
GlyphClass: 2
Flags: W
LayerCount: 2
Fore
SplineSet
159 497 m 1,0,-1
 75 497 l 1,1,-1
 237 714 l 1,2,-1
 392 516 l 1,3,-1
 391 717 l 1,4,-1
 481 717 l 1,5,-1
 482 516 l 1,6,-1
 635 714 l 1,7,-1
 793 495 l 1,8,-1
 709 495 l 1,9,-1
 635 600 l 1,10,-1
 481 427 l 1,11,-1
 485 3 l 1,12,-1
 395 3 l 1,13,-1
 391 427 l 1,14,-1
 238 595 l 1,15,-1
 159 497 l 1,0,-1
EndSplineSet
Validated: 1
EndChar

StartChar: u10CA8
Encoding: 57 68776 54
Width: 588
GlyphClass: 2
Flags: W
LayerCount: 2
Fore
SplineSet
231.251953125 530 m 1,0,1
 263 486 263 486 295.45703125 442 c 1,2,3
 295 437 295 437 471 714 c 1,4,-1
 566 714 l 1,5,-1
 345 374 l 1,6,-1
 583 0 l 1,7,-1
 481 0 l 1,8,-1
 394.641601562 128 l 1,9,10
 394.641601562 128 394.641601562 128 314 0 c 1,11,-1
 219 0 l 1,12,-1
 352 210 l 1,13,-1
 292 310 l 1,14,-1
 100 0 l 1,15,-1
 5 0 l 1,16,-1
 242 372 l 1,17,-1
 20 714 l 1,18,-1
 120 714 l 1,19,-1
 178.571289062 617 l 1,20,21
 182 615 182 615 247 714 c 1,22,-1
 352 713 l 1,23,-1
 231.251953125 530 l 1,0,1
EndSplineSet
Validated: 524321
EndChar

StartChar: u10CA9
Encoding: 58 68777 55
Width: 588
GlyphClass: 2
Flags: W
LayerCount: 2
Fore
SplineSet
412 714 m 5,0,1
 412 714 412 714 566 714 c 1,2,-1
 345 374 l 1,3,-1
 583 0 l 1,4,-1
 419 0 l 1,5,-1
 261 92 l 25,6,7
 261 92 261 92 259 191 c 25,8,-1
 417.571289062 97 l 17,9,10
 417.571289062 97 417.571289062 97 292 310 c 1,11,-1
 100 0 l 1,12,-1
 5 0 l 1,13,-1
 242 372 l 1,14,-1
 20 714 l 1,15,-1
 120 714 l 1,16,-1
 295 434 l 1,17,-1
 410.400390625 620 l 13,18,19
 410.400390625 620 410.400390625 620 252 525 c 29,20,-1
 254 624 l 29,21,22
 353 682 353 682 412 714 c 5,0,1
EndSplineSet
Validated: 524289
EndChar

StartChar: u10CAA
Encoding: 59 68778 56
Width: 706
GlyphClass: 2
Flags: W
LayerCount: 2
Fore
SplineSet
166 -1 m 9,0,-1
 80 0 l 25,1,-1
 75 714 l 17,2,-1
 166 714 l 1,3,-1
 341 527 l 1,4,-1
 538 712 l 1,5,-1
 631 714 l 1,6,-1
 631 0 l 1,7,-1
 538 2 l 1,8,-1
 341 186 l 1,9,-1
 166 -1 l 9,0,-1
166 107 m 17,10,11
 166 107 166 107 343 284 c 1,12,-1
 538 103 l 1,13,14
 538 103 538 103 538 607 c 1,15,-1
 343 429 l 1,16,-1
 166 609 l 9,17,18
 166 609 166 609 166 107 c 17,10,11
EndSplineSet
Validated: 1
EndChar

StartChar: u10CAB
Encoding: 60 68779 57
Width: 784
GlyphClass: 2
Flags: W
LayerCount: 2
Fore
SplineSet
175.967773438 103.5 m 17,0,1
 176 104 176 104 345.322265625 374 c 1,2,3
 170 620 170 620 167.578125 622 c 9,4,5
 167.578125 622 167.578125 622 175.967773438 103.5 c 17,0,1
75 715 m 1,6,7
 203.322265625 717 203.322265625 717 203.322265625 717 c 1,8,-1
 398.322265625 436 l 1,9,-1
 594.322265625 717 l 1,10,-1
 709.958984375 716 l 1,11,12
 709.958984375 716 709.958984375 716 709.322265625 1 c 1,13,-1
 584.322265625 1 l 1,14,-1
 395.322265625 312 l 1,15,-1
 203.322265625 1 l 1,16,-1
 77.322265625 1 l 1,17,-1
 75 715 l 1,6,7
617.578125 624 m 17,18,19
 617.578125 624 617.578125 624 448.322265625 376 c 1,20,-1
 623.322265625 100 l 9,21,22
 623.322265625 100 623.322265625 100 617.578125 624 c 17,18,19
EndSplineSet
Validated: 524289
EndChar

StartChar: u10CAC
Encoding: 61 68780 58
Width: 813
GlyphClass: 2
Flags: W
LayerCount: 2
Fore
SplineSet
569 569 m 1,0,-1
 676 675 l 1,1,-1
 731 615 l 1,2,-1
 613 501 l 1,3,4
 660 411 660 411 661 339 c 0,5,6
 661 258 661 258 630 197 c 1,7,-1
 738 71 l 1,8,-1
 673 3 l 1,9,-1
 577 125 l 1,10,11
 533 63 533 63 468 3 c 1,12,-1
 337 3 l 1,13,14
 340 6 340 6 342 6 c 1,15,-1
 333 6 l 1,16,17
 270 65 270 65 228 121 c 1,18,-1
 136 4 l 1,19,-1
 81 68 l 1,20,-1
 189 192 l 1,21,22
 188 194 188 194 178.5 212.5 c 128,-1,23
 169 231 169 231 167 236.5 c 128,-1,24
 165 242 165 242 158.5 258 c 128,-1,25
 152 274 152 274 150 284 c 128,-1,26
 148 294 148 294 145.5 309.5 c 128,-1,27
 143 325 143 325 143 339 c 0,28,29
 143 367 143 367 151 398.5 c 128,-1,30
 159 430 159 430 165.5 444 c 128,-1,31
 172 458 172 458 188 491 c 1,32,-1
 75 624 l 1,33,-1
 136 677 l 1,34,-1
 227 569 l 1,35,36
 261 617 261 617 340 691 c 1,37,-1
 463 691 l 1,38,39
 461 688 461 688 460 688 c 1,40,-1
 461 688 l 1,41,42
 525 629 525 629 569 569 c 1,0,-1
402 92 m 1,43,44
 485 164 485 164 526 220 c 128,-1,45
 567 276 567 276 567 338 c 0,46,47
 567 401 567 401 524.5 463 c 128,-1,48
 482 525 482 525 398 599 c 1,49,50
 317 527 317 527 276.5 465.5 c 128,-1,51
 236 404 236 404 236 341.5 c 128,-1,52
 236 279 236 279 277 221.5 c 128,-1,53
 318 164 318 164 402 92 c 1,43,44
EndSplineSet
Validated: 1
EndChar

StartChar: u10CAD
Encoding: 62 68781 59
Width: 533
GlyphClass: 2
Flags: W
LayerCount: 2
Fore
SplineSet
458 3 m 1,0,-1
 368 3 l 1,1,-1
 367 362 l 1,2,-1
 75 216 l 5,3,-1
 75 714 l 5,4,-1
 165 714 l 1,5,-1
 161 348 l 1,6,-1
 458 493 l 1,7,-1
 458 3 l 1,0,-1
EndSplineSet
Validated: 1
EndChar

StartChar: u10CAE
Encoding: 63 68782 60
Width: 702
GlyphClass: 2
Flags: W
LayerCount: 2
Fore
SplineSet
165 714 m 1,0,-1
 340 527 l 1,1,-1
 537 711 l 1,2,-1
 627 714 l 5,3,-1
 627 0 l 5,4,-1
 537 0 l 1,5,-1
 537 607 l 1,6,-1
 342 429 l 1,7,-1
 165 609 l 1,8,-1
 165 0 l 1,9,-1
 75 0 l 1,10,-1
 75 714 l 1,11,-1
 165 714 l 1,0,-1
EndSplineSet
Validated: 1
EndChar

StartChar: u10CAF
Encoding: 64 68783 61
Width: 696
GlyphClass: 2
Flags: W
LayerCount: 2
Fore
SplineSet
531 604 m 1,0,1
 165 392 165 392 165 392 c 129,-1,2
 165 392 165 392 165 292 c 1,3,-1
 531 502 l 1,4,-1
 531 604 l 1,0,1
531 321 m 1,5,6
 531 321 531 321 531 423 c 1,7,-1
 165 213 l 1,8,-1
 165 112 l 1,9,10
 165 112 165 112 531 321 c 1,5,6
531 238 m 1,11,12
 165 28 165 28 165 28 c 129,-1,13
 165 28 165 28 165 0 c 1,14,-1
 75 0 l 1,15,-1
 75 714 l 1,16,-1
 165 714 l 1,17,-1
 165 477 l 1,18,19
 165 477 165 477 531 687 c 1,20,21
 531 687 531 687 531 714 c 1,22,-1
 621 714 l 1,23,-1
 621 0 l 1,24,-1
 531 0 l 1,25,-1
 531 238 l 1,11,12
EndSplineSet
Validated: 1
EndChar

StartChar: u10CB0
Encoding: 65 68784 62
Width: 702
GlyphClass: 2
Flags: W
LayerCount: 2
Fore
SplineSet
396 714 m 1,0,-1
 396 535 l 1,1,-1
 543 712 l 1,2,-1
 627 712 l 1,3,-1
 396 439 l 1,4,-1
 396 0 l 1,5,-1
 306 0 l 1,6,-1
 306 442 l 1,7,-1
 75 712 l 1,8,-1
 159 712 l 1,9,-1
 306 535 l 1,10,-1
 306 714 l 1,11,-1
 396 714 l 1,0,-1
EndSplineSet
Validated: 1
EndChar

StartChar: u10CB1
Encoding: 66 68785 63
Width: 871
GlyphClass: 2
Flags: W
LayerCount: 2
Fore
SplineSet
391 0 m 1,0,-1
 238 169 l 1,1,-1
 159 95 l 1,2,-1
 75 95 l 1,3,-1
 237 279 l 1,4,-1
 392 89 l 1,5,-1
 391 236 l 1,6,-1
 238 395 l 1,7,-1
 159 321 l 1,8,-1
 75 321 l 1,9,-1
 237 490 l 1,10,-1
 392 340 l 1,11,-1
 391 487 l 1,12,-1
 238 618 l 1,13,-1
 159 540 l 1,14,-1
 75 540 l 1,15,-1
 237 708 l 1,16,-1
 392 558 l 1,17,-1
 391 714 l 1,18,-1
 484 714 l 1,19,-1
 483 558 l 1,20,-1
 638 708 l 1,21,-1
 796 538 l 1,22,-1
 712 538 l 1,23,-1
 638 623 l 1,24,-1
 484 487 l 1,25,-1
 480 340 l 1,26,-1
 638 490 l 1,27,-1
 796 319 l 1,28,-1
 712 319 l 1,29,-1
 638 400 l 1,30,-1
 479 236 l 1,31,-1
 480 89 l 1,32,-1
 638 279 l 1,33,-1
 796 93 l 1,34,-1
 712 93 l 1,35,-1
 638 174 l 1,36,-1
 484 0 l 1,37,-1
 391 0 l 1,0,-1
EndSplineSet
Validated: 1
EndChar

StartChar: u10CB2
Encoding: 67 68786 64
Width: 734
GlyphClass: 2
Flags: W
LayerCount: 2
Fore
SplineSet
411 103 m 1,0,1
 467 161 467 161 516.5 239.5 c 128,-1,2
 566 318 566 318 566 355 c 0,3,4
 566 403 566 403 519 482.5 c 128,-1,5
 472 562 472 562 410 617 c 1,6,-1
 411 103 l 1,0,1
320 105 m 1,7,-1
 321 617 l 1,8,9
 261 560 261 560 214.5 481 c 128,-1,10
 168 402 168 402 168 357 c 0,11,12
 168 321 168 321 217.5 241 c 128,-1,13
 267 161 267 161 320 105 c 1,7,-1
328 2 m 1,14,15
 196 100 196 100 135.5 184.5 c 128,-1,16
 75 269 75 269 75 362 c 0,17,18
 75 454 75 454 133.5 538 c 128,-1,19
 192 622 192 622 319 716 c 1,20,-1
 409 716 l 1,21,22
 540 621 540 621 599.5 535.5 c 128,-1,23
 659 450 659 450 659 356 c 0,24,25
 659 263 659 263 600.5 180 c 128,-1,26
 542 97 542 97 410 2 c 1,27,-1
 328 2 l 1,14,15
EndSplineSet
Validated: 1
EndChar

StartChar: u10CC0
Encoding: 68 68800 65
Width: 456
GlyphClass: 2
Flags: W
LayerCount: 2
Fore
SplineSet
381 572 m 5,0,-1
 379 0 l 1,1,-1
 289 0 l 1,2,-1
 288 285 l 5,3,-1
 75 284 l 5,4,-1
 75 355 l 5,5,-1
 291 572 l 5,6,-1
 381 572 l 5,0,-1
290 359 m 5,7,-1
 290 497 l 5,8,-1
 144 358 l 5,9,-1
 290 359 l 5,7,-1
EndSplineSet
Validated: 1
EndChar

StartChar: u10CC1
Encoding: 69 68801 66
Width: 469
GlyphClass: 2
Flags: W
LayerCount: 2
Fore
SplineSet
394 575 m 1,0,-1
 392 0 l 1,1,-1
 302 0 l 1,2,-1
 301 271 l 1,3,-1
 75 379 l 1,4,-1
 75 435 l 1,5,-1
 304 575 l 1,6,-1
 394 575 l 1,0,-1
303 330 m 1,7,-1
 303 516 l 1,8,-1
 137 415 l 1,9,-1
 303 330 l 1,7,-1
EndSplineSet
Validated: 1
EndChar

StartChar: u10CC2
Encoding: 70 68802 67
Width: 472
GlyphClass: 2
Flags: W
LayerCount: 2
Fore
SplineSet
467 0 m 1,0,-1
 386 0 l 1,1,-1
 235 252 l 1,2,-1
 81 0 l 1,3,-1
 5 0 l 1,4,-1
 195 302 l 1,5,-1
 17 575 l 1,6,-1
 97 575 l 1,7,-1
 237 351 l 1,8,-1
 378 575 l 1,9,-1
 454 575 l 1,10,-1
 277 303 l 1,11,-1
 467 0 l 1,0,-1
EndSplineSet
Validated: 1
EndChar

StartChar: u10CC3
Encoding: 71 68803 68
Width: 947
GlyphClass: 2
Flags: W
LayerCount: 2
Fore
SplineSet
435 1 m 1,0,1
 407 21 407 21 383 41.5 c 128,-1,2
 359 62 359 62 337 83 c 1,3,-1
 189 1 l 1,4,-1
 91 92 l 1,5,-1
 138 137 l 1,6,-1
 204 85 l 1,7,-1
 293 125 l 1,8,9
 256 158 256 158 235.5 195 c 128,-1,10
 215 232 215 232 215 286 c 128,-1,11
 215 340 215 340 235.5 377.5 c 128,-1,12
 256 415 256 415 293 449 c 1,13,-1
 197 488 l 1,14,-1
 122 401 l 1,15,-1
 75 441 l 1,16,17
 76 441 76 441 181 571 c 1,18,-1
 337 489 l 1,19,20
 358 510 358 510 383 531 c 128,-1,21
 408 552 408 552 435 572 c 1,22,-1
 510 572 l 1,23,24
 538 552 538 552 562 531.5 c 128,-1,25
 586 511 586 511 607 490 c 1,26,-1
 761 571 l 1,27,-1
 872 459 l 1,28,-1
 827 416 l 1,29,-1
 750 492 l 1,30,-1
 651 449 l 1,31,32
 689 415 689 415 709.5 377.5 c 128,-1,33
 730 340 730 340 730 286 c 128,-1,34
 730 232 730 232 710 194.5 c 128,-1,35
 690 157 690 157 651 123 c 1,36,-1
 743 85 l 1,37,-1
 811 156 l 1,38,-1
 864 118 l 1,39,-1
 757 1 l 1,40,-1
 607 82 l 1,41,42
 586 62 586 62 562 41 c 128,-1,43
 538 20 538 20 510 1 c 1,44,-1
 435 1 l 1,0,1
474 59 m 5,45,46
 539 105 539 105 586 164 c 4,47,48
 640 232 640 232 640 286 c 132,-1,49
 640 340 640 340 586 409 c 4,50,51
 536 475 536 475 474 514 c 5,52,-1
 471 514 l 5,53,54
 409 472 409 472 359 408 c 4,55,56
 305 340 305 340 305 286 c 132,-1,57
 305 232 305 232 359 164 c 4,58,59
 409 100 409 100 471 59 c 5,60,-1
 474 59 l 5,45,46
EndSplineSet
Validated: 1
EndChar

StartChar: u10CC4
Encoding: 72 68804 69
Width: 622
GlyphClass: 2
Flags: W
LayerCount: 2
Fore
SplineSet
265 505 m 5,0,-1
 164 413 l 5,1,-1
 75 413 l 5,2,-1
 265 575 l 5,3,-1
 357 575 l 5,4,-1
 547 413 l 5,5,-1
 459 413 l 5,6,-1
 358 506 l 5,7,-1
 355 0 l 1,8,-1
 262 0 l 1,9,-1
 265 505 l 5,0,-1
EndSplineSet
Validated: 1
EndChar

StartChar: u10CC5
Encoding: 73 68805 70
Width: 620
GlyphClass: 2
Flags: W
LayerCount: 2
Fore
SplineSet
342 0 m 1,0,-1
 278 0 l 1,1,-1
 75 168 l 1,2,-1
 164 168 l 1,3,-1
 265 76 l 1,4,-1
 265 505 l 1,5,-1
 164 413 l 1,6,-1
 75 413 l 1,7,-1
 278 575 l 1,8,-1
 342 575 l 1,9,-1
 545 413 l 1,10,-1
 457 413 l 1,11,-1
 355 506 l 1,12,-1
 355 75 l 1,13,-1
 457 168 l 1,14,-1
 545 168 l 1,15,-1
 342 0 l 1,0,-1
EndSplineSet
Validated: 1
EndChar

StartChar: u10CC6
Encoding: 74 68806 71
Width: 623
GlyphClass: 2
Flags: W
LayerCount: 2
Fore
SplineSet
458 285 m 1,0,1
 458 285 458 285 458 464 c 1,2,-1
 165 296 l 1,3,-1
 165 115 l 1,4,5
 293 190 293 190 458 285 c 1,0,1
458 223 m 1,6,7
 312 136 312 136 165 53 c 1,8,9
 165 26 165 26 165 0 c 1,10,-1
 75 0 l 1,11,-1
 75 575 l 1,12,-1
 165 575 l 1,13,-1
 165 359 l 1,14,-1
 458 527 l 1,15,-1
 458 575 l 1,16,-1
 548 575 l 1,17,-1
 548 0 l 1,18,-1
 458 0 l 1,19,-1
 458 223 l 1,6,7
EndSplineSet
Validated: 1
EndChar

StartChar: u10CC7
Encoding: 75 68807 72
Width: 461
GlyphClass: 2
Flags: W
LayerCount: 2
Fore
SplineSet
177 575 m 17,0,1
 177 575 177 575 268 575 c 1,2,3
 268 553 268 553 268 335 c 1,4,5
 268 335 268 335 386 406 c 9,6,-1
 386 343 l 17,7,-1
 268 278 l 1,8,9
 266 173 266 173 266 0 c 1,10,11
 266 0 266 0 177 0 c 1,12,13
 177 116 177 116 177 232 c 1,14,15
 177 232 177 232 75 175 c 1,16,-1
 75 238 l 1,17,-1
 178 297 l 9,18,19
 178 297 178 297 177 575 c 17,0,1
EndSplineSet
Validated: 1
EndChar

StartChar: u10CC8
Encoding: 76 68808 73
Width: 480
GlyphClass: 2
Flags: W
LayerCount: 2
Fore
SplineSet
323 341 m 1,0,1
 323 341 323 341 460 386 c 9,2,-1
 460 330 l 1,3,-1
 283 272 l 1,4,5
 379 136 379 136 475 0 c 1,6,7
 475 0 475 0 394 0 c 1,8,-1
 228 248 l 1,9,-1
 81 0 l 1,10,-1
 5 0 l 1,11,12
 80 117 80 117 154 233 c 1,13,14
 154 233 154 233 40 190 c 1,15,-1
 40 253 l 1,16,-1
 190 305 l 1,17,18
 175 340 175 340 17 571 c 1,19,20
 17 571 17 571 97 571 c 1,21,-1
 237 347 l 1,22,-1
 386 571 l 1,23,-1
 462 571 l 1,24,25
 392 456 392 456 323 341 c 1,0,1
EndSplineSet
Validated: 1
EndChar

StartChar: u10CC9
Encoding: 77 68809 74
Width: 476
GlyphClass: 2
Flags: W
LayerCount: 2
Fore
SplineSet
86 94 m 1,0,1
 124 94 124 94 136 98 c 0,2,3
 197 115 197 115 214 129 c 1,4,-1
 138 187 l 1,5,-1
 182 227 l 1,6,-1
 257 170 l 1,7,8
 286 208 286 208 293 222 c 0,9,10
 310 248 310 248 305 291 c 0,11,12
 305 357 305 357 261 410 c 1,13,-1
 184 350 l 1,14,-1
 138 391 l 1,15,-1
 214 448 l 1,16,17
 182 470 182 470 136 475 c 0,18,19
 107 478 107 478 90 478 c 2,20,-1
 79 478 l 1,21,-1
 75 571 l 1,22,23
 147 567 147 567 161 563 c 4,24,25
 215 545 215 545 262 498 c 5,26,-1
 337 573 l 5,27,-1
 398 520 l 5,28,-1
 318 455 l 5,29,30
 395 382 395 382 395 288 c 6,31,-1
 395 285 l 6,32,33
 395 243 395 243 385.5 217.5 c 132,-1,34
 376 192 376 192 361.5 174 c 132,-1,35
 347 156 347 156 317 128 c 5,36,-1
 401 65 l 5,37,-1
 344 4 l 5,38,-1
 271 77 l 5,39,40
 227 33 227 33 161 9 c 4,41,42
 141 2 141 2 90 0 c 1,43,-1
 86 94 l 1,0,1
EndSplineSet
Validated: 33
EndChar

StartChar: u10CCA
Encoding: 78 68810 75
Width: 506
GlyphClass: 2
Flags: W
LayerCount: 2
Fore
SplineSet
79 45 m 1,0,1
 115 60 115 60 145 74 c 128,-1,2
 175 88 175 88 201 101 c 1,3,4
 138 143 138 143 110 184.5 c 128,-1,5
 82 226 82 226 82 286 c 256,6,7
 82 348 82 348 109 390.5 c 128,-1,8
 136 433 136 433 200 474 c 1,9,10
 174 488 174 488 143 502.5 c 128,-1,11
 112 517 112 517 75 532 c 1,12,-1
 134 573 l 1,13,14
 204 540 204 540 253 512 c 1,15,16
 302 541 302 541 372 573 c 1,17,-1
 431 532 l 1,18,19
 394 517 394 517 363.5 502.5 c 128,-1,20
 333 488 333 488 308 475 c 1,21,22
 371 433 371 433 397.5 391 c 128,-1,23
 424 349 424 349 424 286 c 0,24,25
 424 226 424 226 397.5 183.5 c 128,-1,26
 371 141 371 141 306 101 c 1,27,28
 331 88 331 88 362 74.5 c 128,-1,29
 393 61 393 61 428 45 c 1,30,-1
 376 -2 l 1,31,32
 341 16 341 16 310 32 c 128,-1,33
 279 48 279 48 253 64 c 1,34,35
 227 48 227 48 196.5 31.5 c 128,-1,36
 166 15 166 15 130 -2 c 1,37,-1
 79 45 l 1,0,1
253 137 m 1,38,39
 298 171 298 171 315 203 c 0,40,41
 333 237 333 237 333 286 c 0,42,43
 333 338 333 338 316 371 c 0,44,45
 301 401 301 401 253 437 c 1,46,47
 207 403 207 403 191 371 c 0,48,49
 173 338 173 338 173 286 c 256,50,51
 173 238 173 238 191 203 c 0,52,53
 207 172 207 172 253 137 c 1,38,39
EndSplineSet
Validated: 1
EndChar

StartChar: u10CCB
Encoding: 79 68811 76
Width: 478
GlyphClass: 2
Flags: W
LayerCount: 2
Fore
SplineSet
79 40 m 17,0,1
 109 55 109 55 135 68.5 c 128,-1,2
 161 82 161 82 183 95 c 9,3,4
 183 95 183 95 236 131 c 17,5,6
 278 164 278 164 295.5 197.5 c 128,-1,7
 313 231 313 231 313 271 c 0,8,9
 313 312 313 312 295.5 345 c 128,-1,10
 278 378 278 378 236 411 c 1,11,12
 236 411 236 411 182 448 c 1,13,14
 160 462 160 462 133.5 476 c 128,-1,15
 107 490 107 490 75 506 c 9,16,17
 75 506 75 506 248 619 c 17,18,19
 297 577 297 577 297 578 c 1,20,21
 266 563 266 563 239 548.5 c 128,-1,22
 212 534 212 534 191 521 c 1,23,24
 292 476 292 476 352 409 c 0,25,26
 403 351 403 351 403 271 c 0,27,28
 403 185 403 185 352 130 c 0,29,30
 304 79 304 79 204 36 c 1,31,32
 226 23 226 23 252.5 8.5 c 128,-1,33
 279 -6 279 -6 310 -21 c 1,34,35
 310 -21 310 -21 261 -62 c 9,36,37
 261 -62 261 -62 79 40 c 17,0,1
EndSplineSet
Validated: 37
EndChar

StartChar: u10CCC
Encoding: 80 68812 77
Width: 635
GlyphClass: 2
Flags: W
LayerCount: 2
Fore
SplineSet
276 0 m 1,0,1
 177 61 177 61 126 128.5 c 128,-1,2
 75 196 75 196 75 286 c 256,3,4
 75 376 75 376 126 443 c 128,-1,5
 177 510 177 510 276 571 c 1,6,-1
 359 571 l 1,7,8
 457 510 457 510 508.5 442.5 c 0,9,10
 560 376 560 376 560 286 c 256,11,12
 560 196 560 196 508.5 128.5 c 128,-1,13
 457 61 457 61 359 0 c 1,14,-1
 276 0 l 1,0,1
317 332 m 1,15,-1
 411 425 l 1,16,17
 393 445 393 445 370 465 c 128,-1,18
 347 485 347 485 319 507 c 1,19,-1
 316 507 l 1,20,21
 287 485 287 485 264.5 465 c 128,-1,22
 242 445 242 445 224 426 c 1,23,-1
 317 332 l 1,15,-1
185 199 m 1,24,-1
 271 284 l 1,25,-1
 185 372 l 1,26,27
 166 334 166 334 166 286 c 128,-1,28
 166 238 166 238 185 199 c 1,24,-1
450 199 m 1,29,30
 469 238 469 238 469 286 c 0,31,32
 469 332 469 332 450 371 c 1,33,-1
 364 284 l 1,34,-1
 450 199 l 1,29,30
316 64 m 1,35,-1
 319 64 l 1,36,37
 376 106 376 106 410 142 c 1,38,-1
 317 236 l 1,39,-1
 225 142 l 1,40,41
 259 106 259 106 316 64 c 1,35,-1
EndSplineSet
Validated: 1
EndChar

StartChar: u10CCD
Encoding: 81 68813 78
Width: 554
GlyphClass: 2
Flags: W
LayerCount: 2
Fore
SplineSet
335 338 m 2,0,1
 344 346 344 346 314 396 c 5,2,3
 299 430 299 430 297 431.5 c 128,-1,4
 295 433 295 433 277 491 c 1,5,6
 263 449 263 449 259 432 c 0,7,8
 256 422 256 422 239 382 c 2,9,10
 218 330 218 330 218 330 c 129,-1,11
 218 330 218 330 80 0 c 1,12,-1
 5 0 l 1,13,-1
 166 390 l 1,14,15
 166 390 166 390 241 571 c 1,16,-1
 313 571 l 1,17,-1
 549 0 l 1,18,-1
 473 0 l 1,19,-1
 369 249 l 1,20,21
 316 125 316 125 264 0 c 1,22,23
 264 0 264 0 189 0 c 1,24,25
 340 327 340 327 335 338 c 2,0,1
EndSplineSet
Validated: 33
EndChar

StartChar: u10CCE
Encoding: 82 68814 79
Width: 495
GlyphClass: 2
Flags: W
LayerCount: 2
Fore
SplineSet
288 366 m 5,0,-1
 289 260 l 5,1,-1
 420 343 l 5,2,-1
 420 281 l 5,3,-1
 288 199 l 5,4,-1
 286 0 l 5,5,-1
 196 0 l 1,6,-1
 196 162 l 1,7,-1
 75 86 l 1,8,-1
 75 147 l 1,9,-1
 196 226 l 1,10,-1
 196 330 l 1,11,-1
 75 254 l 1,12,-1
 75 315 l 1,13,-1
 196 394 l 1,14,-1
 196 575 l 1,15,-1
 286 575 l 5,16,-1
 287 428 l 5,17,-1
 420 511 l 5,18,-1
 420 449 l 5,19,-1
 288 366 l 5,0,-1
EndSplineSet
Validated: 1
EndChar

StartChar: u10CCF
Encoding: 83 68815 80
Width: 564
GlyphClass: 2
Flags: W
LayerCount: 2
Fore
SplineSet
170 290 m 1,0,-1
 282 186 l 1,1,-1
 394 290 l 1,2,-1
 282 396 l 1,3,-1
 170 290 l 1,0,-1
88 290 m 1,4,-1
 230 435 l 1,5,-1
 82 575 l 1,6,-1
 172 575 l 1,7,-1
 282 467 l 1,8,-1
 392 575 l 1,9,-1
 481 575 l 1,10,-1
 333 435 l 1,11,-1
 476 291 l 1,12,-1
 333 151 l 1,13,-1
 489 0 l 1,14,-1
 399 0 l 1,15,-1
 282 119 l 1,16,-1
 164 0 l 1,17,-1
 75 0 l 1,18,-1
 230 151 l 1,19,-1
 88 290 l 1,4,-1
EndSplineSet
Validated: 1
EndChar

StartChar: u10CD0
Encoding: 84 68816 81
Width: 495
GlyphClass: 2
Flags: W
LayerCount: 2
Fore
SplineSet
289 497 m 1,0,-1
 420 579 l 1,1,-1
 420 519 l 1,2,-1
 288 435 l 1,3,-1
 286 0 l 1,4,-1
 196 0 l 1,5,-1
 196 399 l 1,6,-1
 75 323 l 1,7,-1
 75 384 l 1,8,-1
 196 463 l 1,9,-1
 196 575 l 1,10,-1
 286 575 l 1,11,-1
 289 497 l 1,0,-1
EndSplineSet
Validated: 1
EndChar

StartChar: u10CD1
Encoding: 85 68817 82
Width: 495
GlyphClass: 2
Flags: W
LayerCount: 2
Fore
SplineSet
419 575 m 1,0,-1
 420 511 l 1,1,-1
 288 427 l 1,2,-1
 286 0 l 1,3,-1
 196 0 l 1,4,-1
 196 391 l 1,5,-1
 75 315 l 1,6,-1
 75 376 l 1,7,-1
 419 575 l 1,0,-1
EndSplineSet
Validated: 1
EndChar

StartChar: u10CD2
Encoding: 86 68818 83
Width: 421
GlyphClass: 2
Flags: W
LayerCount: 2
Fore
SplineSet
75 435 m 1,0,-1
 267 575 l 1,1,-1
 346 575 l 5,2,-1
 344 0 l 5,3,-1
 254 0 l 1,4,-1
 254 507 l 1,5,-1
 75 369 l 1,6,-1
 75 435 l 1,0,-1
EndSplineSet
Validated: 1
EndChar

StartChar: u10CD3
Encoding: 87 68819 84
Width: 557
GlyphClass: 2
Flags: W
LayerCount: 2
Fore
SplineSet
277 62 m 1,0,-1
 410 294 l 1,1,-1
 277 515 l 1,2,-1
 147 291 l 1,3,-1
 277 62 l 1,0,-1
315 0 m 1,4,-1
 241 0 l 1,5,-1
 75 291 l 1,6,-1
 238 575 l 1,7,-1
 312 575 l 1,8,-1
 482 294 l 1,9,-1
 315 0 l 1,4,-1
EndSplineSet
Validated: 1
EndChar

StartChar: u10CD4
Encoding: 88 68820 85
Width: 625
GlyphClass: 2
Flags: W
LayerCount: 2
Fore
SplineSet
550 263 m 1,0,-1
 367 0 l 1,1,-1
 279 1 l 1,2,-1
 273 496 l 1,3,-1
 151 335 l 1,4,-1
 75 335 l 1,5,-1
 276 576 l 1,6,-1
 364 575 l 1,7,-1
 364 83 l 1,8,-1
 476 262 l 1,9,-1
 550 263 l 1,0,-1
EndSplineSet
Validated: 1
EndChar

StartChar: u10CD5
Encoding: 89 68821 86
Width: 568
GlyphClass: 2
Flags: W
LayerCount: 2
Fore
SplineSet
473 67 m 9,0,1
 473 67 473 67 563 153 c 29,2,-1
 562 73 l 29,3,4
 540 37 540 37 518 1 c 1,5,6
 518 1 518 1 434 0 c 1,7,-1
 283 248 l 1,8,-1
 129 0 l 1,9,-1
 51 1 l 1,10,11
 29 37 29 37 7 73 c 25,12,13
 7 73 7 73 5 153 c 25,14,-1
 96 69 l 17,15,16
 99 72 99 72 243 298 c 1,17,18
 104 503 104 503 104 503 c 137,-1,19
 104 503 104 503 21 418 c 25,20,-1
 23 497 l 25,21,22
 45 533 45 533 67 569 c 1,23,24
 67 569 67 569 145 571 c 1,25,-1
 285 347 l 1,26,-1
 426 571 l 1,27,28
 502 571 502 571 504 569 c 1,29,30
 526 533 526 533 548 497 c 25,31,32
 548 497 548 497 550 418 c 25,33,-1
 459 502 l 17,34,35
 457 554 457 554 325 299 c 1,36,37
 474 64 474 64 473 67 c 9,0,1
EndSplineSet
Validated: 33
EndChar

StartChar: u10CD6
Encoding: 90 68822 87
Width: 554
GlyphClass: 2
Flags: W
LayerCount: 2
Fore
SplineSet
435 102 m 130,-1,1
 435 102 435 102 392 0 c 1,2,-1
 317 0 l 1,3,-1
 393 190 l 1,4,5
 361 268 361 268 361 268 c 130,-1,6
 361 268 361 268 248 0 c 1,7,-1
 173 0 l 1,8,-1
 324 375 l 1,9,-1
 323 365 l 2,10,11
 330 374 330 374 300 432 c 0,12,13
 281 478 281 478 277 491 c 1,14,15
 263 449 263 449 259 432 c 0,16,17
 256 423 256 423 239 382 c 2,18,19
 239 382 239 382 80 0 c 1,20,-1
 5 0 l 1,21,-1
 241 571 l 1,22,-1
 313 571 l 1,23,-1
 549 0 l 1,24,-1
 473 0 l 1,25,0
 435 102 435 102 435 102 c 130,-1,1
EndSplineSet
Validated: 37
EndChar

StartChar: u10CD7
Encoding: 91 68823 88
Width: 614
GlyphClass: 2
Flags: W
LayerCount: 2
Fore
SplineSet
260 0 m 1,0,1
 176 61 176 61 125.5 128.5 c 128,-1,2
 75 196 75 196 75 286 c 256,3,4
 75 376 75 376 125.5 443 c 128,-1,5
 176 510 176 510 260 571 c 1,6,-1
 334 571 l 1,7,8
 426 510 426 510 482.5 442.5 c 0,9,10
 539 376 539 376 539 286 c 256,11,12
 539 196 539 196 483 128.5 c 128,-1,13
 427 61 427 61 334 0 c 1,14,-1
 260 0 l 1,0,1
180 199 m 1,15,-1
 383 425 l 1,16,17
 353 463 353 463 299 507 c 1,18,-1
 297 507 l 1,19,20
 219 443 219 443 213 435 c 0,21,22
 183 401 183 401 165 365 c 0,23,24
 133 316 133 316 147 286 c 0,25,26
 155 250 155 250 180 199 c 1,15,-1
297 64 m 1,27,-1
 299 64 l 1,28,29
 389 140 389 140 412 171 c 4,30,31
 449 220 449 220 449 286 c 4,32,33
 449 291 449 291 416 369 c 1,34,-1
 216 142 l 1,35,36
 231 123 231 123 251.5 103.5 c 128,-1,37
 272 84 272 84 297 64 c 1,27,-1
EndSplineSet
Validated: 33
EndChar

StartChar: u10CD8
Encoding: 92 68824 89
Width: 485
GlyphClass: 2
Flags: W
LayerCount: 2
Fore
SplineSet
316 0 m 1,0,-1
 76 104 l 1,1,-1
 76 168 l 1,2,-1
 276 271 l 1,3,-1
 76 371 l 1,4,-1
 75 427 l 1,5,-1
 317 555 l 1,6,-1
 410 555 l 1,7,-1
 408 0 l 1,8,-1
 316 0 l 1,0,-1
315 60 m 1,9,-1
 314 231 l 1,10,-1
 139 138 l 1,11,-1
 315 60 l 1,9,-1
316 309 m 1,12,-1
 316 495 l 1,13,-1
 134 402 l 1,14,-1
 316 309 l 1,12,-1
EndSplineSet
Validated: 1
EndChar

StartChar: u10CD9
Encoding: 93 68825 90
Width: 435
GlyphClass: 2
Flags: W
LayerCount: 2
Fore
SplineSet
75 -8 m 1,0,1
 75 -8 75 -8 75 69 c 1,2,-1
 85 69 l 2,3,4
 270 69 270 69 270 286 c 0,5,6
 270 396 270 396 224.5 447.5 c 128,-1,7
 179 499 179 499 97 499 c 2,8,9
 97 499 97 499 75 499 c 1,10,-1
 75 582 l 1,11,12
 153 580 153 580 227.5 547 c 128,-1,13
 302 514 302 514 331 450 c 128,-1,14
 360 386 360 386 360 291 c 4,15,16
 360 140 360 140 280 64.5 c 128,-1,17
 200 -11 200 -11 75 -8 c 1,0,1
EndSplineSet
Validated: 33
EndChar

StartChar: u10CDA
Encoding: 94 68826 91
Width: 523
GlyphClass: 2
Flags: W
LayerCount: 2
Fore
SplineSet
448 291 m 0,0,1
 448 146 448 146 374 73 c 128,-1,2
 300 0 300 0 163 0 c 2,3,-1
 75 0 l 5,4,-1
 75 571 l 5,5,-1
 180 571 l 2,6,7
 263 571 263 571 324 539 c 128,-1,8
 385 507 385 507 416.5 445 c 128,-1,9
 448 383 448 383 448 291 c 0,0,1
358 288 m 0,10,11
 358 394 358 394 313 444 c 128,-1,12
 268 494 268 494 185 494 c 2,13,-1
 163 494 l 1,14,-1
 163 77 l 1,15,-1
 173 77 l 2,16,17
 358 77 358 77 358 288 c 0,10,11
EndSplineSet
Validated: 1
EndChar

StartChar: u10CDB
Encoding: 95 68827 92
Width: 565
GlyphClass: 2
Flags: W
LayerCount: 2
Fore
SplineSet
203 51 m 17,0,1
 203 51 203 51 214 52 c 2,2,3
 400 69 400 69 400 278 c 0,4,5
 400 392 400 392 355 445.5 c 128,-1,6
 310 499 310 499 227 499 c 2,7,8
 227 499 227 499 202 499 c 9,9,-1
 75 423 l 25,10,-1
 76 490 l 25,11,12
 155 548 155 548 202 580 c 1,13,14
 282 579 282 579 357.5 546 c 128,-1,15
 433 513 433 513 461.5 443 c 128,-1,16
 490 373 490 373 490 278 c 4,17,18
 490 128 490 128 410.5 50.5 c 128,-1,19
 331 -27 331 -27 202 -9 c 1,20,21
 155 17 155 17 76 63 c 25,22,23
 76 63 76 63 76 127 c 25,24,-1
 203 51 l 17,0,1
EndSplineSet
Validated: 33
EndChar

StartChar: u10CDC
Encoding: 96 68828 93
Width: 562
GlyphClass: 2
Flags: W
LayerCount: 2
Fore
SplineSet
413 468 m 5,0,1
 487 390 487 390 487 279 c 2,2,3
 487 278 487 278 487 276 c 2,4,5
 487 232 487 232 477.5 205 c 128,-1,6
 468 178 468 178 443.5 144.5 c 128,-1,7
 419 111 419 111 392 81 c 1,8,9
 392 81 392 81 278 2 c 9,10,-1
 208 0 l 25,11,-1
 75 156 l 25,12,-1
 195 275 l 25,13,-1
 248 223 l 25,14,-1
 170 150 l 25,15,16
 171.021484375 139.787109375 171.021484375 139.787109375 259 69 c 24,17,18
 249 77 249 77 257 80 c 0,19,20
 291 95 291 95 352 153 c 1,21,22
 370 187 370 187 383 210 c 0,23,24
 396 234 396 234 393 282 c 0,25,26
 388 362 388 362 356 412 c 1,27,28
 286 471 286 471 258 480 c 24,29,30
 231 489 231 489 202 484 c 10,31,32
 197 484 197 484 205 574 c 1,33,34
 265 574 265 574 280 569 c 0,35,36
 342 549 342 549 413 468 c 5,0,1
EndSplineSet
Validated: 524325
EndChar

StartChar: u10CDD
Encoding: 97 68829 94
Width: 405
GlyphClass: 2
Flags: W
LayerCount: 2
Fore
SplineSet
146 574 m 5,0,-1
 326 433 l 5,1,-1
 167 179 l 5,2,-1
 330 52 l 5,3,-1
 280 -2 l 5,4,-1
 75 177 l 5,5,-1
 235 433 l 5,6,-1
 103 533 l 5,7,-1
 146 574 l 5,0,-1
EndSplineSet
Validated: 1
EndChar

StartChar: u10CDE
Encoding: 98 68830 95
Width: 514
GlyphClass: 2
Flags: W
LayerCount: 2
Fore
SplineSet
165 357 m 1,0,-1
 320 575 l 1,1,-1
 408 575 l 1,2,-1
 213 327 l 1,3,-1
 439 0 l 1,4,-1
 347 0 l 1,5,-1
 165 279 l 1,6,-1
 165 0 l 1,7,-1
 75 0 l 5,8,-1
 75 575 l 5,9,-1
 165 575 l 1,10,-1
 165 357 l 1,0,-1
EndSplineSet
Validated: 1
EndChar

StartChar: u10CDF
Encoding: 99 68831 96
Width: 562
GlyphClass: 2
Flags: W
LayerCount: 2
Fore
SplineSet
259 69 m 28,0,1
 247 77 247 77 257 80 c 0,2,3
 311 104 311 104 320 113 c 1,4,5
 320 113 320 113 275 150 c 1,6,-1
 318 190 l 1,7,-1
 354 155 l 1,8,9
 372 186 372 186 383 210 c 0,10,11
 398 237 398 237 393 282 c 0,12,13
 390 358 390 358 357 410 c 1,14,15
 357 410 357 410 311 370 c 1,16,-1
 276 411 l 1,17,-1
 316 453 l 1,18,19
 296 470 296 470 258 480 c 24,20,21
 231 489 231 489 202 484 c 10,22,23
 197 484 197 484 205 574 c 1,24,25
 264 574 264 574 278 569 c 0,26,27
 316 556 316 556 361 500 c 1,28,29
 361 500 361 500 409 557 c 1,30,-1
 470 502 l 1,31,-1
 410 456 l 1,32,33
 487 380 487 380 487 279 c 2,34,35
 487 276 487 276 487 276 c 2,36,37
 487 232 487 232 477.5 205 c 128,-1,38
 468 178 468 178 453.5 159.5 c 128,-1,39
 439 141 439 141 409 111 c 1,40,41
 409 111 409 111 473 69 c 1,42,-1
 416 23 l 1,43,-1
 368 63 l 1,44,45
 368 63 368 63 278 2 c 9,46,-1
 208 0 l 29,47,-1
 75 156 l 29,48,-1
 195 275 l 29,49,-1
 248 223 l 29,50,-1
 170 150 l 29,51,52
 170 141 170 141 259 69 c 28,0,1
EndSplineSet
Validated: 37
EndChar

StartChar: u10CE0
Encoding: 100 68832 97
Width: 533
GlyphClass: 2
Flags: W
LayerCount: 2
Fore
SplineSet
382 575 m 1,0,1
 458 575 458 575 458 575 c 1,2,-1
 458 0 l 1,3,-1
 368 0 l 1,4,-1
 368 214 l 1,5,6
 75 46 75 46 75 46 c 137,-1,7
 75 46 75 46 75 113 c 17,8,9
 75 113 75 113 368 280 c 1,10,11
 368 280 368 280 368 362 c 1,12,-1
 75 194 l 1,13,-1
 75 257 l 1,14,-1
 368 425 l 1,15,-1
 368 507 l 1,16,17
 222 422 222 422 75 337 c 1,18,19
 75 337 75 337 75 405 c 1,20,21
 75 405 75 405 382 575 c 1,0,1
EndSplineSet
Validated: 1
EndChar

StartChar: u10CE1
Encoding: 101 68833 98
Width: 853
GlyphClass: 2
Flags: W
LayerCount: 2
Fore
SplineSet
429 89 m 1,0,1
 461 131 461 131 493 173 c 0,2,3
 547 243 547 243 546 298 c 0,4,5
 546 358 546 358 493 423 c 0,6,7
 434 496 434 496 429 500 c 1,8,-1
 425 500 l 1,9,10
 389 457 389 457 353 415 c 0,11,12
 299 353 299 353 299 298 c 0,13,14
 299 244 299 244 353 173 c 0,15,16
 385 130 385 130 425 89 c 1,17,-1
 429 89 l 1,0,1
75 386 m 9,18,-1
 428 577 l 17,19,-1
 778 384 l 1,20,-1
 710 390 l 1,21,-1
 589 447 l 1,22,23
 615 415 615 415 629.5 378.5 c 128,-1,24
 644 342 644 342 645 299 c 1,25,26
 645 299 645 299 775 176 c 1,27,-1
 682 176 l 5,28,-1
 637 227 l 1,29,30
 630 202 630 202 617.5 179 c 128,-1,31
 605 156 605 156 588 133 c 1,32,33
 588 133 588 133 682 39 c 1,34,-1
 625 -16 l 1,35,-1
 538 80 l 1,36,37
 520 60 520 60 500 39.5 c 128,-1,38
 480 19 480 19 458 0 c 1,39,40
 392 0 392 0 393 0 c 1,41,42
 371 19 371 19 351 39 c 0,43,44
 331 58 331 58 314 80 c 1,45,46
 314 80 314 80 228 -16 c 1,47,-1
 171 39 l 1,48,-1
 265 133 l 1,49,50
 229 179 229 179 216 227 c 1,51,52
 216 227 216 227 171 176 c 1,53,-1
 79 176 l 1,54,-1
 208 299 l 1,55,56
 210 342 210 342 224 378 c 128,-1,57
 238 414 238 414 263 445 c 1,58,59
 263 445 263 445 144 385 c 1,60,-1
 75 386 l 9,18,-1
EndSplineSet
Validated: 33
EndChar

StartChar: u10CE2
Encoding: 102 68834 99
Width: 623
GlyphClass: 2
Flags: W
LayerCount: 2
Fore
SplineSet
548 0 m 1,0,-1
 458 0 l 1,1,-1
 458 343 l 1,2,-1
 165 175 l 1,3,-1
 165 0 l 1,4,-1
 75 0 l 1,5,-1
 75 575 l 1,6,-1
 165 575 l 1,7,-1
 165 238 l 1,8,-1
 458 406 l 1,9,-1
 458 575 l 1,10,-1
 548 575 l 1,11,-1
 548 0 l 1,0,-1
EndSplineSet
Validated: 1
EndChar

StartChar: u10CE3
Encoding: 103 68835 100
Width: 443
GlyphClass: 2
Flags: W
LayerCount: 2
Fore
SplineSet
368 352 m 21,0,-1
 75 141 l 5,1,-1
 75 220 l 5,2,-1
 368 431 l 13,3,-1
 368 352 l 21,0,-1
EndSplineSet
Validated: 1
EndChar

StartChar: u10CE4
Encoding: 104 68836 101
Width: 554
GlyphClass: 2
Flags: W
LayerCount: 2
Fore
SplineSet
549 0 m 5,0,-1
 473 0 l 5,1,-1
 323 365 l 6,2,3
 295 430 295 430 295 432 c 4,4,5
 287 461 287 461 277 491 c 5,6,7
 267 460 267 460 259 432 c 4,8,9
 256 423 256 423 239 382 c 6,10,11
 239 382 239 382 80 0 c 5,12,-1
 5 0 l 5,13,-1
 241 571 l 5,14,-1
 313 571 l 5,15,-1
 549 0 l 5,0,-1
EndSplineSet
Validated: 1
EndChar

StartChar: u10CE5
Encoding: 105 68837 102
Width: 238
GlyphClass: 2
Flags: W
LayerCount: 2
Fore
SplineSet
163 0 m 1,0,-1
 75 0 l 1,1,-1
 75 575 l 5,2,-1
 163 575 l 5,3,-1
 163 0 l 1,0,-1
EndSplineSet
Validated: 1
EndChar

StartChar: u10CE6
Encoding: 106 68838 103
Width: 424
GlyphClass: 2
Flags: W
LayerCount: 2
Fore
SplineSet
259 413 m 1,0,-1
 259 575 l 1,1,-1
 349 575 l 1,2,-1
 349 0 l 1,3,-1
 259 0 l 1,4,-1
 259 331 l 1,5,-1
 75 574 l 1,6,-1
 141 574 l 1,7,-1
 259 413 l 1,0,-1
EndSplineSet
Validated: 1
EndChar

StartChar: u10CE7
Encoding: 107 68839 104
Width: 743
GlyphClass: 2
Flags: W
LayerCount: 2
Fore
SplineSet
143 398 m 1,0,-1
 75 398 l 1,1,-1
 205 571 l 1,2,-1
 329 413 l 1,3,-1
 328 574 l 1,4,-1
 418 574 l 1,5,-1
 419 413 l 1,6,-1
 542 571 l 1,7,-1
 668 396 l 1,8,-1
 601 396 l 1,9,-1
 542 480 l 1,10,-1
 418 342 l 1,11,-1
 422 2 l 1,12,-1
 332 2 l 1,13,-1
 328 342 l 1,14,-1
 206 476 l 1,15,-1
 143 398 l 1,0,-1
EndSplineSet
Validated: 1
EndChar

StartChar: u10CE8
Encoding: 108 68840 105
Width: 472
GlyphClass: 2
Flags: W
LayerCount: 2
Fore
SplineSet
188 434 m 1,0,1
 188 434 188 434 237 351 c 1,2,-1
 375 576 l 1,3,4
 375 576 375 576 454 575 c 1,5,-1
 277 303 l 1,6,-1
 467 0 l 1,7,-1
 386 0 l 1,8,-1
 317 107 l 1,9,10
 317 107 317 107 252 0 c 1,11,-1
 176 0 l 1,12,-1
 283 172 l 1,13,-1
 235 252 l 1,14,-1
 81 0 l 1,15,-1
 5 0 l 1,16,-1
 195 302 l 1,17,-1
 17 575 l 1,18,-1
 97 575 l 1,19,-1
 148.125 493 l 1,20,21
 204 576 204 576 204 576 c 1,22,23
 204 576 204 576 283 575 c 1,24,-1
 188 434 l 1,0,1
EndSplineSet
Validated: 524289
EndChar

StartChar: u10CE9
Encoding: 109 68841 106
Width: 472
GlyphClass: 2
Flags: W
LayerCount: 2
Fore
SplineSet
331 571 m 5,0,1
 331 571 331 571 454 571 c 1,2,-1
 277 299 l 1,3,-1
 467 0 l 1,4,-1
 336 0 l 1,5,-1
 210 73 l 25,6,7
 210 73 210 73 208 153 c 25,8,-1
 335 77 l 17,9,10
 335 77 335 77 235 248 c 1,11,-1
 81 0 l 1,12,-1
 5 0 l 1,13,-1
 195 298 l 1,14,-1
 17 571 l 1,15,-1
 97 571 l 1,16,-1
 237 347 l 1,17,-1
 329 496 l 9,18,19
 329 496 329 496 203 420 c 25,20,-1
 204 499 l 25,21,22
 284 545 284 545 331 571 c 5,0,1
EndSplineSet
Validated: 1
EndChar

StartChar: u10CEA
Encoding: 110 68842 107
Width: 595
GlyphClass: 2
Flags: W
LayerCount: 2
Fore
SplineSet
148 -1 m 9,0,-1
 79 0 l 25,1,-1
 75 571 l 17,2,-1
 148 571 l 1,3,-1
 288 422 l 1,4,-1
 445 570 l 1,5,-1
 520 571 l 1,6,-1
 520 0 l 1,7,-1
 445 1 l 1,8,-1
 288 149 l 1,9,-1
 148 -1 l 9,0,-1
148 85 m 17,10,11
 148 85 148 85 289 227 c 1,12,-1
 445 82 l 1,13,14
 445 82 445 82 445 486 c 1,15,-1
 289 343 l 1,16,-1
 148 487 l 9,17,18
 148 487 148 487 148 85 c 17,10,11
EndSplineSet
Validated: 1
EndChar

StartChar: u10CEB
Encoding: 111 68843 108
Width: 696
GlyphClass: 2
Flags: W
LayerCount: 2
Fore
SplineSet
176 87 m 17,0,1
 176 87 176 87 312 304 c 1,2,3
 170 501 170 501 168 502 c 9,4,5
 168 502 168 502 176 87 c 17,0,1
75 576 m 1,6,7
 198 578 198 578 198 578 c 1,8,-1
 354 353 l 1,9,-1
 511 578 l 1,10,-1
 621 577 l 1,11,12
 621 577 621 577 620 1 c 1,13,-1
 503 1 l 1,14,-1
 352 254 l 1,15,-1
 198 1 l 1,16,-1
 77 1 l 1,17,-1
 75 576 l 1,6,7
528 504 m 17,18,19
 528 504 528 504 394 305 c 1,20,-1
 534 84 l 9,21,22
 534 85 534 85 528 504 c 17,18,19
EndSplineSet
Validated: 1
EndChar

StartChar: u10CEC
Encoding: 112 68844 109
Width: 718
GlyphClass: 2
Flags: W
LayerCount: 2
Fore
SplineSet
489 454 m 1,0,-1
 593 539 l 1,1,-1
 638 491 l 1,2,-1
 533 400 l 1,3,4
 580 328 580 328 581 271 c 0,5,6
 581 206 581 206 550 157 c 1,7,-1
 643 57 l 1,8,-1
 591 1 l 1,9,-1
 497 100 l 1,10,11
 461 50 461 50 408 1 c 1,12,-1
 303 1 l 1,13,14
 305 5 305 5 307 5 c 1,15,-1
 300 5 l 1,16,17
 249 52 249 52 214 97 c 1,18,-1
 124 2 l 1,19,-1
 80 54 l 1,20,-1
 175 153 l 1,21,22
 174 155 174 155 164.5 169.5 c 128,-1,23
 155 184 155 184 153 188.5 c 128,-1,24
 151 193 151 193 144.5 206 c 128,-1,25
 138 219 138 219 136 227 c 128,-1,26
 134 235 134 235 131.5 247 c 128,-1,27
 129 259 129 259 129 271 c 0,28,29
 129 293 129 293 137 318 c 128,-1,30
 145 343 145 343 151.5 354.5 c 128,-1,31
 158 366 158 366 174 392 c 1,32,-1
 75 498 l 1,33,-1
 124 540 l 1,34,-1
 213 454 l 1,35,36
 241 493 241 493 306 553 c 1,37,-1
 404 553 l 1,38,39
 402 549 402 549 402 549 c 1,40,-1
 403 549 l 1,41,42
 454 502 454 502 489 454 c 1,0,-1
355 74 m 1,43,44
 421 131 421 131 454 175.5 c 128,-1,45
 487 220 487 220 487 270 c 0,46,47
 487 320 487 320 453 369.5 c 128,-1,48
 419 419 419 419 352 478 c 1,49,50
 287 421 287 421 254.5 371.5 c 128,-1,51
 222 322 222 322 222 272.5 c 128,-1,52
 222 223 222 223 255 177 c 128,-1,53
 288 131 288 131 355 74 c 1,43,44
EndSplineSet
Validated: 1
EndChar

StartChar: u10CED
Encoding: 113 68845 110
Width: 492
GlyphClass: 2
Flags: W
LayerCount: 2
Fore
SplineSet
417 2 m 1,0,-1
 327 2 l 1,1,-1
 326 290 l 1,2,-1
 75 173 l 5,3,-1
 75 571 l 5,4,-1
 165 571 l 1,5,-1
 161 278 l 1,6,-1
 417 394 l 1,7,-1
 417 2 l 1,0,-1
EndSplineSet
Validated: 1
EndChar

StartChar: u10CEE
Encoding: 114 68846 111
Width: 628
GlyphClass: 2
Flags: W
LayerCount: 2
Fore
SplineSet
151 575 m 1,0,-1
 305 426 l 1,1,-1
 477 573 l 1,2,-1
 553 575 l 5,3,-1
 553 0 l 5,4,-1
 463 0 l 1,5,-1
 463 490 l 1,6,-1
 307 347 l 1,7,-1
 165 491 l 1,8,-1
 165 0 l 1,9,-1
 75 0 l 1,10,-1
 75 575 l 1,11,-1
 151 575 l 1,0,-1
EndSplineSet
Validated: 1
EndChar

StartChar: u10CEF
Encoding: 115 68847 112
Width: 623
GlyphClass: 2
Flags: W
LayerCount: 2
Fore
SplineSet
458 487 m 1,0,1
 165 317 165 317 165 317.5 c 129,-1,2
 165 318 165 318 165 238 c 1,3,-1
 458 406 l 1,4,-1
 458 487 l 1,0,1
458 261 m 1,5,6
 458 261 458 261 458 343 c 1,7,-1
 165 175 l 1,8,-1
 165 94 l 1,9,10
 165 94 165 94 458 261 c 1,5,6
458 195 m 1,11,12
 165 23 165 23 165 23 c 129,-1,13
 165 23 165 23 165 0 c 1,14,-1
 75 0 l 1,15,-1
 75 575 l 1,16,-1
 165 575 l 1,17,-1
 165 386 l 1,18,19
 165 386 165 386 458 554 c 1,20,21
 458 554 458 554 458 575 c 1,22,-1
 548 575 l 1,23,-1
 548 0 l 1,24,-1
 458 0 l 1,25,-1
 458 195 l 1,11,12
EndSplineSet
Validated: 37
EndChar

StartChar: u10CF0
Encoding: 116 68848 113
Width: 610
GlyphClass: 2
Flags: W
LayerCount: 2
Fore
SplineSet
350 575 m 1,0,-1
 350 432 l 1,1,-1
 468 574 l 1,2,-1
 535 574 l 1,3,-1
 350 355 l 1,4,-1
 350 0 l 1,5,-1
 260 0 l 1,6,-1
 260 358 l 1,7,-1
 75 574 l 1,8,-1
 143 574 l 1,9,-1
 260 432 l 1,10,-1
 260 575 l 1,11,-1
 350 575 l 1,0,-1
EndSplineSet
Validated: 1
EndChar

StartChar: u10CF1
Encoding: 117 68849 114
Width: 745
GlyphClass: 2
Flags: W
LayerCount: 2
Fore
SplineSet
329 0 m 1,0,-1
 206 139 l 1,1,-1
 143 80 l 1,2,-1
 75 80 l 1,3,-1
 205 227 l 1,4,-1
 329 75 l 1,5,-1
 328 193 l 1,6,-1
 206 320 l 1,7,-1
 143 261 l 1,8,-1
 75 261 l 1,9,-1
 205 396 l 1,10,-1
 329 276 l 1,11,-1
 328 394 l 1,12,-1
 206 499 l 1,13,-1
 143 436 l 1,14,-1
 75 436 l 1,15,-1
 205 571 l 1,16,-1
 329 451 l 1,17,-1
 328 575 l 1,18,-1
 421 575 l 1,19,-1
 420 451 l 1,20,-1
 544 571 l 1,21,-1
 670 435 l 1,22,-1
 603 435 l 1,23,-1
 544 503 l 1,24,-1
 421 394 l 1,25,-1
 417 276 l 1,26,-1
 544 396 l 1,27,-1
 670 259 l 1,28,-1
 603 259 l 1,29,-1
 544 324 l 1,30,-1
 416 193 l 1,31,-1
 417 75 l 1,32,-1
 544 227 l 1,33,-1
 670 79 l 1,34,-1
 603 79 l 1,35,-1
 544 143 l 1,36,-1
 421 0 l 1,37,-1
 329 0 l 1,0,-1
EndSplineSet
Validated: 1
EndChar

StartChar: u10CF2
Encoding: 118 68850 115
Width: 673
GlyphClass: 2
Flags: W
LayerCount: 2
Fore
SplineSet
381 82 m 1,0,1
 426 128 426 128 465.5 191 c 128,-1,2
 505 254 505 254 505 284 c 0,3,4
 505 322 505 322 467.5 386 c 128,-1,5
 430 450 430 450 380 494 c 1,6,-1
 381 82 l 1,0,1
290 84 m 1,7,-1
 291 494 l 1,8,9
 243 448 243 448 205.5 385 c 128,-1,10
 168 322 168 322 168 285 c 0,11,12
 168 256 168 256 207.5 192.5 c 128,-1,13
 247 129 247 129 290 84 c 1,7,-1
298 1 m 1,14,15
 182 79 182 79 128.5 147 c 128,-1,16
 75 215 75 215 75 290 c 0,17,18
 75 364 75 364 126.5 431 c 128,-1,19
 178 498 178 498 290 573 c 1,20,-1
 379 573 l 1,21,22
 494 497 494 497 546 428.5 c 128,-1,23
 598 360 598 360 598 285 c 0,24,25
 598 211 598 211 547 144 c 128,-1,26
 496 77 496 77 380 1 c 1,27,-1
 298 1 l 1,14,15
EndSplineSet
Validated: 1
EndChar

StartChar: u10CFA
Encoding: 119 68858 116
Width: 238
GlyphClass: 2
Flags: W
LayerCount: 2
Fore
SplineSet
163 0 m 1,0,-1
 75 0 l 1,1,-1
 75 714 l 5,2,-1
 163 714 l 5,3,-1
 163 0 l 1,0,-1
EndSplineSet
Validated: 1
EndChar

StartChar: u10CFB
Encoding: 120 68859 117
Width: 610
GlyphClass: 2
Flags: W
LayerCount: 2
Fore
SplineSet
605 714 m 1,0,-1
 350 0 l 1,1,-1
 260 0 l 1,2,-1
 5 714 l 1,3,-1
 99 714 l 1,4,-1
 260 256 l 2,5,6
 276 212 276 212 287 173.5 c 128,-1,7
 298 135 298 135 305 100 c 1,8,9
 312 135 312 135 323 174 c 128,-1,10
 334 213 334 213 350 258 c 2,11,-1
 510 714 l 1,12,-1
 605 714 l 1,0,-1
EndSplineSet
Validated: 1
EndChar

StartChar: u10CFC
Encoding: 121 68860 118
Width: 588
GlyphClass: 2
Flags: W
LayerCount: 2
Fore
SplineSet
583 0 m 1,0,-1
 481 0 l 1,1,-1
 292 310 l 1,2,-1
 100 0 l 1,3,-1
 5 0 l 1,4,-1
 242 372 l 1,5,-1
 20 714 l 1,6,-1
 120 714 l 1,7,-1
 295 434 l 1,8,-1
 471 714 l 1,9,-1
 566 714 l 1,10,-1
 345 374 l 1,11,-1
 583 0 l 1,0,-1
EndSplineSet
Validated: 1
EndChar

StartChar: u10CFD
Encoding: 122 68861 119
Width: 610
GlyphClass: 2
Flags: W
LayerCount: 2
Fore
SplineSet
351.424804688 261 m 1,0,1
 351.424804688 261 351.424804688 261 510 714 c 1,2,-1
 605 714 l 1,3,-1
 350 0 l 1,4,-1
 260 0 l 1,5,-1
 5 714 l 1,6,-1
 99 714 l 1,7,-1
 256.309570312 263 l 1,8,9
 256.309570312 263 256.309570312 263 260 715 c 1,10,-1
 348 715 l 5,11,-1
 351.424804688 261 l 1,0,1
EndSplineSet
Validated: 524289
EndChar

StartChar: u10CFE
Encoding: 123 68862 120
Width: 588
GlyphClass: 2
Flags: W
LayerCount: 2
Fore
SplineSet
254.5 482 m 1,0,1
 249 666 249 666 248 720 c 1,2,-1
 336 720 l 1,3,4
 336 626 336 626 335.514648438 483 c 5,5,6
 335.514648438 483 335.514648438 483 471 714 c 1,7,-1
 566 714 l 1,8,-1
 345 374 l 1,9,-1
 583 0 l 1,10,-1
 481 0 l 1,11,-1
 336.380859375 238 l 1,12,13
 336 234 336 234 336 0 c 1,14,15
 336 0 336 0 248 0 c 1,16,-1
 249 240 l 1,17,18
 249 240 249 240 100 0 c 1,19,-1
 5 0 l 1,20,-1
 242 372 l 1,21,-1
 20 714 l 1,22,-1
 120 714 l 1,23,-1
 254.5 482 l 1,0,1
EndSplineSet
Validated: 524289
EndChar

StartChar: u10CFF
Encoding: 124 68863 121
Width: 588
GlyphClass: 2
Flags: W
LayerCount: 2
Fore
SplineSet
209.7578125 330 m 9,0,1
 209.7578125 330 209.7578125 330 31 328 c 25,2,-1
 31 418 l 25,3,-1
 211.806640625 416 l 17,4,5
 211.806640625 416 211.806640625 416 20 714 c 1,6,-1
 120 714 l 1,7,-1
 254.5 442 l 1,8,9
 249 596 249 596 248 720 c 1,10,11
 336 720 336 720 336 720 c 1,12,13
 336 586 336 586 335.514648438 443 c 1,14,15
 335.514648438 443 335.514648438 443 471 714 c 1,16,-1
 566 714 l 1,17,-1
 380.700195312 418 l 9,18,19
 380.700195312 418 380.700195312 418 561 420 c 25,20,-1
 562 330 l 25,21,-1
 374.909179688 330 l 17,22,23
 374.909179688 330 374.909179688 330 583 0 c 1,24,-1
 481 0 l 1,25,-1
 336.380859375 268 l 1,26,27
 336 264 336 264 336 0 c 1,28,29
 336 0 336 0 248 0 c 1,30,-1
 249 270 l 1,31,32
 249 270 249 270 100 0 c 1,33,-1
 5 0 l 1,34,-1
 209.7578125 330 l 9,0,1
EndSplineSet
Validated: 524289
EndChar
